<svg xmlns="http://www.w3.org/2000/svg" xmlns:xlink="http://www.w3.org/1999/xlink" xml:space="preserve" version="1.1" style="shape-rendering:geometricPrecision;text-rendering:geometricPrecision;image-rendering:optimizeQuality;" viewBox="3000 1000 50000 50500" x="0px" y="0px" fill-rule="evenodd" clip-rule="evenodd"><defs><style type="text/css">
   
    .str0 {stroke:white;stroke-width:864.44}
    .fil0 {fill:none}
   
  </style></defs><g><g><circle class="fil0 str0" cx="38416" cy="26046" r="1107"/><path class="fil0 str0" d="M42868 10108c1096,1795 1627,2798 -69,4221 -589,494 -1806,1355 -2441,1976 -635,621 -1503,1933 -1237,4445 261,2469 1773,4939 2408,6420 635,1482 4524,10556 4735,11050 1649,3852 -3382,5334 -4735,1791 -1610,-4209 -4237,-9804 -5451,-13828 -1206,-3998 -1229,-8640 -5746,-7158 -5226,1714 -7020,-4877 798,-6671 2933,-673 6197,-2155 9275,-2856 1295,-296 1787,-497 2463,610z"/><path class="fil0 str0" d="M45389 9089l1897 -945c38,-19 237,-123 261,-135 306,-158 488,345 622,645 45,99 4,236 -122,305l-2039 1119c-130,71 -157,264 -121,368 109,317 -124,460 -313,558 -284,146 -330,196 -293,472 33,248 -477,394 -538,260 -418,-919 -710,-1737 -1460,-2521 0,0 408,-323 681,-126 182,132 274,131 496,-27 152,-109 421,-206 559,-37 68,85 128,185 370,64z"/><path class="fil0 str0" d="M2273 17714c394,-180 865,-5 1045,389l733 1602c2804,115 10751,294 13385,137 62,-4 588,-40 1058,-166 293,-78 6457,-3959 6490,-3962 -720,1959 390,3707 1651,4108 -2634,1090 -6157,2740 -8921,2963l-10894 0c-936,-32 -2287,0 -2806,-179 -244,-46 -463,-205 -574,-446l-1556 -3401c-180,-394 -5,-865 389,-1045z"/><circle class="fil0 str0" cx="44047" cy="39232" r="1107"/></g></g>
  <!-- <text x="0" y="50015" fill="#000000" font-size="5px" font-weight="bold" font-family="'Helvetica Neue', Helvetica, Arial-Unicode, Arial, Sans-serif">Created by Oleksandr Panasovskyi</text><text x="0" y="50020" fill="#000000" font-size="5px" font-weight="bold" font-family="'Helvetica Neue', Helvetica, Arial-Unicode, Arial, Sans-serif">from the Noun Project</text> -->
  </svg>