<svg xmlns="http://www.w3.org/2000/svg" xmlns:xlink="http://www.w3.org/1999/xlink" version="1.1" x="0px" y="0px" viewBox="9 16 82 68" enable-background="new 0 0 100 100" xml:space="preserve"><path d="M84.767,43.205H71.761c-3.116-14.423-15.944-25.229-31.299-25.229C22.775,17.976,8.438,32.313,8.438,50  s14.338,32.024,32.024,32.024c15.354,0,28.183-10.808,31.299-25.229h13.006c3.747,0,6.796-3.048,6.796-6.795  S88.514,43.205,84.767,43.205z M84.767,55.045H49.478h-0.001H48.25c-0.216,0.013-0.448,0.055-0.657,0.102l0.002,0.004  c-0.047,0.009-0.094,0.019-0.142,0.029c-0.264,0.065-0.467,0.133-0.508,0.146c-0.559,0.201-1.069,0.537-1.353,1.095  c-0.413,0.814-0.202,1.807,0.628,2.949l6.113,8.371l0.015,0.019c0.24,0.312,1.155,1.327,2.829,1.327c0.115,0,0.23-0.006,0.347-0.016  c0.023-0.002,0.047-0.006,0.07-0.008c0.098-0.01,0.195-0.022,0.294-0.038c0.018-0.003,0.036-0.007,0.054-0.01  c0.108-0.02,0.217-0.043,0.326-0.069c0.009-0.002,0.018-0.005,0.026-0.007c1.361-0.343,2.831-1.296,4.386-2.851  c0.005-0.005,0.01-0.009,0.015-0.014L60.69,66.06c2.146-2.701,3.763-5.841,4.694-9.265h4.583c-1.253,5.49-4.019,10.532-8.099,14.612  c-5.718,5.718-13.32,8.867-21.407,8.867c-8.086,0-15.688-3.149-21.407-8.867c-5.718-5.718-8.867-13.32-8.867-21.407  s3.149-15.689,8.867-21.407c5.719-5.718,13.321-8.867,21.407-8.867c8.087,0,15.689,3.149,21.407,8.867  c4.08,4.08,6.85,9.121,8.103,14.612h-4.587c-0.932-3.423-2.548-6.563-4.694-9.265l0.005-0.016c-0.005-0.005-0.01-0.009-0.015-0.014  c-1.555-1.555-3.024-2.508-4.386-2.851c-0.009-0.002-0.018-0.005-0.026-0.007c-0.109-0.026-0.218-0.05-0.326-0.069  c-0.018-0.003-0.036-0.007-0.054-0.01c-0.099-0.016-0.196-0.028-0.294-0.038c-0.023-0.002-0.047-0.006-0.07-0.008  c-0.116-0.01-0.231-0.016-0.347-0.016c-1.674,0-2.589,1.016-2.829,1.327l-0.015,0.019l-6.113,8.371  c-0.83,1.143-1.041,2.135-0.628,2.949c0.283,0.558,0.794,0.894,1.353,1.095c0.041,0.014,0.244,0.081,0.508,0.146  c0.048,0.011,0.095,0.021,0.142,0.029l-0.002,0.004c0.209,0.047,0.441,0.089,0.657,0.102h1.227h0.001h35.289  c2.782,0,5.046,2.263,5.046,5.045S87.549,55.045,84.767,55.045z M47.153,57.213c0.086-0.167,0.653-0.396,1.513-0.418h3.497  c-0.797,1.367-1.826,2.582-3.033,3.591l-1.485-2.034l-0.015-0.02C47.127,57.637,47.115,57.289,47.153,57.213z M54.158,56.795h3.872  c-0.933,2.416-2.368,4.633-4.255,6.519c-0.483,0.483-0.99,0.935-1.516,1.358l-2.091-2.863  C51.827,60.443,53.193,58.737,54.158,56.795z M59.886,56.795h3.685c-0.867,2.962-2.302,5.731-4.25,8.176  c-0.002,0.002-0.004,0.005-0.006,0.007c-1.61,1.577-2.81,2.148-3.629,2.308c-0.001,0-0.001,0-0.002,0.001  c-0.062,0.012-0.122,0.021-0.18,0.028c-0.016,0.003-0.03,0.003-0.046,0.005c-0.042,0.005-0.084,0.01-0.123,0.012  c-0.055,0.004-0.106,0.006-0.157,0.006c-0.88,0-1.341-0.516-1.438-0.639l-0.447-0.612C56.286,63.694,58.595,60.484,59.886,56.795z   M48.671,43.205c-0.862-0.021-1.432-0.25-1.518-0.418c-0.038-0.076-0.026-0.424,0.477-1.119l0.015-0.02l1.485-2.034  c1.207,1.009,2.236,2.224,3.033,3.591H48.671z M54.156,43.205c-0.965-1.941-2.329-3.649-3.987-5.014l2.093-2.865  c0.524,0.423,1.03,0.877,1.514,1.36c1.887,1.886,3.321,4.103,4.255,6.519H54.156z M59.887,43.205c-1.29-3.689-3.6-6.899-6.595-9.291  l0.447-0.612c0.098-0.123,0.559-0.639,1.438-0.639c0.051,0,0.103,0.002,0.157,0.006c0.039,0.002,0.081,0.007,0.123,0.012  c0.016,0.002,0.03,0.002,0.046,0.005c0.058,0.007,0.117,0.017,0.18,0.028c0.001,0.001,0.001,0.001,0.002,0.001  c0.819,0.159,2.019,0.73,3.629,2.308c0.002,0.002,0.004,0.004,0.006,0.007c1.948,2.444,3.383,5.214,4.25,8.176H59.887z"/><path d="M40.462,60.799l-7.182,9.938c-0.065,0.09-0.375,0.532-0.567,1.153l0,0c-0.021,0.069-0.041,0.141-0.059,0.213  c0,0.001,0,0.002,0,0.002c-0.019,0.072-0.034,0.147-0.047,0.224c-0.001,0.001-0.001,0.003-0.001,0.004  c-0.014,0.076-0.024,0.152-0.032,0.231c0,0.002-0.001,0.005-0.001,0.007c-0.008,0.078-0.013,0.158-0.015,0.239  c0,0.002,0,0.005,0,0.008c-0.002,0.081,0,0.162,0.005,0.245c0,0.003,0.001,0.007,0.001,0.01c0.006,0.083,0.015,0.166,0.027,0.251  c0.001,0.003,0.002,0.006,0.002,0.009c0.014,0.086,0.031,0.171,0.054,0.258l0.001,0.001c0.019,0.073,0.038,0.146,0.064,0.221  c0.132,0.373,0.339,0.713,0.62,1.019h0.001c2.264,0.649,4.655,0.997,7.128,0.997c2.415,0,4.752-0.333,6.97-0.952l0.207-0.098  l-0.002-0.004c0.031-0.034,0.062-0.067,0.091-0.103c0.213-0.263,0.375-0.55,0.483-0.859c0.026-0.074,0.046-0.147,0.065-0.221v-0.001  c0.022-0.087,0.04-0.172,0.054-0.258c0.001-0.003,0.001-0.006,0.002-0.009c0.014-0.085,0.022-0.168,0.028-0.251  c0-0.003,0-0.007,0-0.01c0.006-0.083,0.007-0.164,0.006-0.245c0-0.003,0-0.006-0.001-0.008c-0.001-0.081-0.007-0.161-0.015-0.239  c0-0.002,0-0.005,0-0.007c-0.009-0.079-0.02-0.155-0.032-0.231c0-0.001-0.001-0.003-0.001-0.004  c-0.014-0.076-0.029-0.151-0.047-0.224c0,0,0-0.001,0-0.002c-0.019-0.072-0.038-0.144-0.06-0.213l0,0  c-0.192-0.621-0.501-1.063-0.567-1.153l-3.625-5.017L40.462,60.799z M46.559,73.238c-0.01,0.024-0.023,0.049-0.035,0.073  c-1.956,0.505-3.988,0.767-6.062,0.767c-2.074,0-4.106-0.265-6.063-0.771c-0.01-0.023-0.023-0.046-0.032-0.069  c-0.246-0.682,0.314-1.45,0.316-1.453l2.804-3.88l2.976-4.118l5.776,7.993C46.244,71.788,46.805,72.557,46.559,73.238z"/><path d="M34.127,60.157c0.1-0.153,2.441-3.821,2.441-10.157s-2.342-10.004-2.441-10.157l-0.026-0.039l-5.524-7.563  c-0.24-0.312-1.155-1.327-2.83-1.327c-0.114,0-0.229,0.006-0.346,0.016c-0.023,0.002-0.048,0.005-0.071,0.008  c-0.097,0.01-0.194,0.021-0.293,0.038c-0.019,0.003-0.037,0.007-0.056,0.01c-0.107,0.02-0.215,0.042-0.324,0.069  c-0.009,0.002-0.018,0.004-0.027,0.007c-0.12,0.03-0.242,0.065-0.364,0.105c-1.259,0.412-2.604,1.328-4.021,2.745  c-0.019,0.019-0.037,0.036-0.056,0.054l0.005,0.029l-0.001,0.004c-3.479,4.399-5.558,9.957-5.558,16.002s2.079,11.603,5.558,16.002  l0.001,0.004l-0.005,0.029c0.019,0.018,0.037,0.035,0.056,0.054c1.417,1.417,2.763,2.333,4.021,2.745  c0.122,0.04,0.244,0.075,0.364,0.105c0.01,0.003,0.019,0.005,0.027,0.007c0.109,0.027,0.217,0.05,0.324,0.069  c0.019,0.003,0.037,0.007,0.056,0.01c0.099,0.016,0.196,0.028,0.293,0.038c0.023,0.003,0.048,0.006,0.071,0.008  c0.116,0.01,0.231,0.016,0.346,0.016c1.675,0,2.59-1.016,2.83-1.327l5.524-7.563L34.127,60.157z M30.756,38.191  c-3.407,2.804-5.582,7.052-5.582,11.809s2.174,9.006,5.581,11.81l-2.092,2.864c-0.525-0.423-1.031-0.877-1.515-1.36  c-3.556-3.556-5.515-8.284-5.515-13.313s1.959-9.758,5.515-13.313c0.483-0.483,0.989-0.938,1.515-1.36L30.756,38.191z   M25.746,67.337c-0.797,0-2.159-0.419-4.15-2.373c-3.377-4.241-5.212-9.461-5.212-14.964s1.835-10.723,5.212-14.964  c1.991-1.954,3.354-2.373,4.15-2.373c0.881,0,1.341,0.516,1.438,0.639l0.447,0.611C22.91,37.684,19.884,43.488,19.884,50  s3.025,12.317,7.747,16.088l-0.446,0.61C27.087,66.821,26.627,67.337,25.746,67.337z M31.795,60.386  C28.821,57.9,26.924,54.169,26.924,50s1.897-7.9,4.871-10.386l0.875,1.198c0.154,0.25,2.148,3.586,2.148,9.188  s-1.994,8.938-2.148,9.188L31.795,60.386z"/><path d="M48.211,28.108L48.211,28.108c0.021-0.068,0.041-0.14,0.06-0.213c0,0,0-0.001,0-0.002c0.018-0.072,0.033-0.146,0.047-0.223  c0-0.001,0.001-0.003,0.001-0.004c0.013-0.076,0.023-0.153,0.032-0.231c0-0.003,0-0.005,0-0.007  c0.008-0.078,0.014-0.158,0.015-0.239c0.001-0.003,0.001-0.005,0.001-0.008c0.001-0.081,0-0.163-0.006-0.246  c0-0.003,0-0.006,0-0.009c-0.006-0.083-0.015-0.167-0.028-0.251c-0.001-0.003-0.001-0.007-0.002-0.01  c-0.014-0.085-0.031-0.171-0.054-0.257v-0.001c-0.02-0.073-0.039-0.147-0.065-0.221c-0.108-0.31-0.271-0.597-0.483-0.859  c-0.028-0.035-0.06-0.068-0.091-0.103l0.002-0.004l-0.207-0.098c-2.218-0.62-4.555-0.952-6.97-0.952  c-2.473,0-4.864,0.348-7.128,0.997h-0.001c-0.281,0.306-0.488,0.646-0.62,1.019c-0.026,0.073-0.046,0.147-0.064,0.221l-0.001,0.001  c-0.022,0.086-0.04,0.172-0.054,0.257c0,0.003-0.001,0.007-0.002,0.01c-0.013,0.084-0.021,0.168-0.027,0.251  c0,0.003-0.001,0.006-0.001,0.009c-0.005,0.083-0.007,0.165-0.005,0.246c0,0.003,0,0.005,0,0.008  c0.002,0.081,0.007,0.161,0.015,0.239c0,0.002,0.001,0.004,0.001,0.007c0.008,0.078,0.019,0.155,0.032,0.231  c0,0.001,0,0.003,0.001,0.004c0.013,0.076,0.028,0.15,0.047,0.223c0,0.001,0,0.002,0,0.002c0.018,0.073,0.037,0.145,0.059,0.213l0,0  c0.192,0.622,0.502,1.064,0.567,1.154l7.182,9.938l3.557-4.922l3.625-5.017C47.71,29.173,48.019,28.73,48.211,28.108z M46.238,28.22  l-5.776,7.993l-2.976-4.118l-2.804-3.88c-0.002-0.003-0.562-0.771-0.316-1.453c0.009-0.023,0.022-0.046,0.032-0.069  c1.957-0.506,3.989-0.771,6.063-0.771c2.073,0,4.105,0.262,6.062,0.767c0.012,0.024,0.025,0.048,0.035,0.073  C46.805,27.443,46.244,28.212,46.238,28.22z"/><path d="M84.212,46.579c-1.889,0-3.421,1.532-3.421,3.421s1.532,3.421,3.421,3.421c1.89,0,3.421-1.532,3.421-3.421  S86.102,46.579,84.212,46.579z M84.212,51.671c-0.921,0-1.671-0.75-1.671-1.671s0.75-1.671,1.671-1.671s1.671,0.75,1.671,1.671  S85.133,51.671,84.212,51.671z"/>
<!-- <text x="0" y="115" fill="#000000" font-size="5px" font-weight="bold" font-family="'Helvetica Neue', Helvetica, Arial-Unicode, Arial, Sans-serif">Created by Anton Gajdosik</text><text x="0" y="120" fill="#000000" font-size="5px" font-weight="bold" font-family="'Helvetica Neue', Helvetica, Arial-Unicode, Arial, Sans-serif">from the Noun Project</text> -->
</svg>