<svg xmlns="http://www.w3.org/2000/svg" xmlns:xlink="http://www.w3.org/1999/xlink" xml:space="preserve" version="1.1" style="shape-rendering:geometricPrecision;text-rendering:geometricPrecision;image-rendering:optimizeQuality;" viewBox="0 0 50000 62500" x="0px" y="0px" fill-rule="evenodd" clip-rule="evenodd"><defs><style type="text/css">
   
    .fil0 {fill:white;fill-rule:nonzero}
   
  </style></defs><g><path class="fil0" d="M18256 26849c-7,-208 -53,-557 -105,-950 -126,-962 -286,-2172 -6,-2612 114,-177 198,-259 260,-320 68,-66 76,-73 82,-1055l-35 -9963c-25,-90 -47,-114 -66,-135 -119,-133 -205,-228 -180,-1081 12,-873 113,-962 268,-1099 31,-28 68,-60 117,-194 24,-372 200,-661 456,-862 200,-156 448,-257 710,-299 255,-41 525,-26 773,48 385,114 722,367 889,769l8 17 26 108c487,-205 1014,-717 1447,-1137 50,-48 98,-96 144,-140 210,-1858 308,-3667 409,-5520 21,-386 42,-775 62,-1125l10 -194 185 -59c230,-74 765,-111 1290,-111 525,0 1060,37 1290,111l185 59 11 194c19,350 40,739 61,1125 101,1853 199,3663 409,5521 98,97 197,201 300,307 378,395 797,833 1245,990 118,-302 332,-539 594,-700 223,-137 482,-218 745,-237 264,-18 534,29 776,148 312,154 574,425 715,829l21 11c389,204 426,223 442,1445 16,1199 -109,1343 -246,1501 -23,26 -47,53 -70,130l35 9543c6,982 14,989 82,1055 62,61 146,143 260,320 280,440 120,1650 -6,2612 -52,393 -98,742 -105,950 4,6045 12,12090 12,18135 -20,535 -29,745 -76,883 23,22 45,46 65,71 119,150 172,355 172,503l1 762c0,368 -239,447 -467,523 -42,14 -83,28 -94,36 -17,13 -40,31 -58,60 -29,47 -56,122 -73,246 -46,335 -100,549 -220,704 -144,186 -331,251 -627,265 -28,2 -90,6 -155,10 -163,11 -348,24 -538,16 -537,-23 -1020,-195 -993,-879l-5 -321 -166 0c-278,0 -471,-43 -614,-175 -148,-138 -205,-329 -204,-617l3 -715c0,-228 71,-389 207,-501 60,-49 127,-83 203,-106l-9 -20481c-55,-272 -110,-614 -154,-958 -41,-326 -72,-663 -83,-950l-1 -20 2 -19c23,-233 44,-415 64,-590 154,-1366 259,-2287 -776,-2781 -619,-296 -1400,-445 -2183,-445 -777,1 -1552,148 -2167,446 -1014,491 -907,1411 -749,2769 21,178 43,364 67,600l2 19 -1 21c-11,287 -42,624 -83,950 -44,343 -99,686 -154,958l3 20480c75,24 143,58 202,107 137,112 208,273 208,501l3 715c0,288 -56,479 -204,617 -143,132 -336,175 -615,175l-165 0 -5 321c27,684 -456,856 -993,878 -190,9 -375,-4 -539,-15 -64,-4 -126,-8 -154,-10 -296,-14 -483,-79 -627,-265 -120,-155 -174,-369 -220,-704 -17,-124 -45,-199 -73,-246 -18,-29 -42,-47 -59,-60 -10,-8 -51,-22 -93,-36 -228,-76 -467,-155 -467,-523l0 -762c1,-148 54,-353 173,-503 20,-25 42,-49 65,-71 -47,-138 -56,-348 -76,-883l0 -18135zm453 -1022c54,406 102,767 109,1007l0 18131c26,696 28,699 109,807 23,31 28,36 37,49l325 445 -551 3c-10,0 -21,8 -30,20 -35,44 -51,107 -51,152l-1 762c0,37 43,-24 84,-10 87,29 172,57 252,117 53,40 128,99 201,219 63,102 121,249 151,464 32,236 61,375 107,435 23,29 88,41 208,47 71,4 117,7 166,10 152,10 325,22 479,15 243,-10 463,-70 453,-299l0 -14 12 -887 720 1c134,0 210,-7 233,-28 17,-16 24,-80 23,-202l-2 -715c0,-43 -1,-63 -3,-65 -13,-10 -57,-15 -127,-15l-281 0c-1,-7023 -2,-14047 -2,-21070l5 -26c53,-252 107,-590 151,-938 39,-315 69,-629 80,-884 -18,-174 -42,-378 -65,-574 -186,-1594 -312,-2674 1064,-3340 691,-335 1553,-501 2412,-501 863,0 1730,167 2425,500 1397,667 1275,1747 1094,3350 -22,193 -45,394 -62,564 11,255 41,570 80,885 44,348 98,686 151,938l5 26c5,7023 7,14047 10,21070l-282 0c-69,0 -113,5 -126,15 -2,2 -3,22 -3,65l-3 715c0,122 6,186 24,202 22,21 99,28 232,28l720 -1 13 887 0 14c-10,229 210,289 453,299 153,7 326,-5 479,-15 48,-3 94,-6 166,-10 120,-6 185,-18 207,-47 47,-60 75,-199 108,-435 30,-215 88,-362 151,-464 73,-120 147,-179 201,-219 80,-60 165,-88 252,-117 41,-14 83,47 83,10l0 -762c0,-45 -16,-108 -51,-152 -9,-12 -20,-20 -30,-20l-552 -3 326 -445c9,-13 14,-18 37,-49 81,-108 83,-111 109,-807 -4,-6044 -12,-12088 -12,-18131 7,-240 55,-601 109,-1007 115,-873 260,-1971 90,-2238 -77,-119 -135,-176 -179,-218 -219,-213 -243,-237 -251,-1457 0,-3206 -23,-6415 -35,-9622l8 -31c57,-228 129,-311 198,-391 64,-73 122,-140 110,-1126 -12,-885 -23,-891 -142,-953 -41,-21 -86,-45 -136,-75l-98 -58 -30 -110c-83,-297 -254,-488 -459,-590 -150,-74 -320,-102 -490,-90 -171,11 -340,65 -487,155 -210,129 -369,334 -412,597l-42 266 -267 -30c-737,-84 -1311,-683 -1819,-1213 -124,-129 -243,-254 -357,-362l-74 -71 -12 -101c-218,-1898 -319,-3754 -422,-5656 -16,-294 -32,-589 -50,-908 -226,-30 -578,-46 -935,-46 -357,0 -709,16 -935,46 -18,319 -34,614 -50,908 -103,1902 -204,3758 -422,5656l-12 101 -74 71c-73,69 -143,136 -214,206 -564,548 -1272,1235 -1994,1366l-260 47 -147 -604c-98,-220 -295,-362 -521,-429 -169,-50 -352,-60 -526,-32 -169,27 -326,90 -449,186 -143,113 -239,275 -245,483l-1 47 -13 38c-103,300 -206,391 -291,466 -42,37 -69,62 -78,689l0 5c-18,626 5,652 37,688 64,71 138,153 201,404l8 30c11,3347 35,6696 35,10043 -8,1220 -32,1244 -251,1457 -44,42 -102,99 -179,218 -170,267 -25,1365 90,2238zm4560 -15758l-1361 1345c-66,106 -75,170 -83,221 -25,172 -42,285 -303,460l-4 5150c1095,-339 2289,-509 3482,-509 1193,0 2387,170 3482,509l-4 -5150c-261,-175 -278,-288 -303,-460 -8,-51 -17,-115 -83,-221l-1367 -1351c-50,41 -103,81 -159,118 -405,265 -993,408 -1574,414 -585,5 -1176,-128 -1582,-413 -50,-35 -97,-73 -141,-113zm-1779 966l1839 -1816 189 287c52,80 126,152 216,215 307,216 777,316 1253,311 481,-4 956,-115 1270,-321 96,-63 174,-134 230,-213l191 -272c618,610 1236,1220 1854,1830l17 26c147,227 168,364 183,471 5,31 8,50 167,142l141 81 5 6257 -375 -132c-1132,-400 -2400,-600 -3670,-600 -1270,0 -2538,200 -3670,600l-375 132 5 -6257 141 -81c159,-92 162,-111 167,-142 15,-107 36,-244 183,-471l17 -26 22 -21zm-2990 11835c874,-658 933,-1588 991,-2491 85,-1331 166,-2612 2301,-3215l152 543c-1750,494 -1819,1580 -1891,2707 -66,1031 -133,2093 -1213,2906l-340 -450zm12767 470c-1080,-814 -1148,-1875 -1214,-2906 -72,-1127 -141,-2213 -1891,-2708l152 -542c2135,603 2217,1884 2301,3215 58,903 117,1833 991,2491l-339 450zm-10029 -11121l-2702 -41 6 -562 2702 41 -6 562zm10141 0l-2624 -41 8 -562 2625 41 -9 562zm-10231 -2330l-2513 -41 8 -562 2514 41 -9 562zm10243 0l-2624 -21 4 -562 2624 21 -4 562zm-8078 -2094l3374 0 0 564 -3374 0 0 -564zm-9 1430l3392 0 0 423 -3392 0 0 -423z"/></g>
  <!-- <text x="0" y="50015" fill="#000000" font-size="5px" font-weight="bold" font-family="'Helvetica Neue', Helvetica, Arial-Unicode, Arial, Sans-serif">Created by Oleksandr Panasovskyi</text><text x="0" y="50020" fill="#000000" font-size="5px" font-weight="bold" font-family="'Helvetica Neue', Helvetica, Arial-Unicode, Arial, Sans-serif">from the Noun Project</text> -->
  </svg>