<svg xmlns="http://www.w3.org/2000/svg" xmlns:xlink="http://www.w3.org/1999/xlink" version="1.1" x="0px" y="0px" viewBox="20 15 60 75" style="enable-background:new 0 0 100 100;" xml:space="preserve"><g><path d="M42.1,22.9h6.5v-6.5h-6.5V22.9z M43.6,18H47v3.4h-3.4V18z"/><path d="M58.1,16.3h-6.5v6.5h6.5V16.3z M56.5,21.2h-3.4v-3.4h3.4V21.2z"/><path d="M47,29h-6.5v6.5H47V29z M45.5,33.9h-3.4v-3.4h3.4V33.9z"/><path d="M53.1,35.4h6.5v-6.5h-6.5V35.4z M54.7,30.4h3.4v3.4h-3.4V30.4z"/><path d="M42.1,48.1h6.5v-6.5h-6.5V48.1z M43.6,43.1H47v3.4h-3.4V43.1z"/><path d="M58.1,41.4h-6.5v6.5h6.5V41.4z M56.5,46.4h-3.4V43h3.4V46.4z"/><path d="M47,54.1h-6.5v6.5H47V54.1z M45.5,59.1h-3.4v-3.4h3.4V59.1z"/><path d="M53.1,60.5h6.5V54h-6.5V60.5z M54.7,55.5h3.4v3.4h-3.4V55.5z"/><path d="M42.1,73.3h6.5v-6.5h-6.5V73.3z M43.6,68.3H47v3.4h-3.4V68.3z"/><path d="M58.1,66.6h-6.5v6.5h6.5V66.6z M56.5,71.6h-3.4v-3.4h3.4V71.6z"/><path d="M40.5,85.8H47v-6.5h-6.5V85.8z M42.1,80.8h3.4v3.4h-3.4V80.8z"/><path d="M53.1,85.7h6.5v-6.5h-6.5V85.7z M54.7,80.7h3.4v3.4h-3.4V80.7z"/><path d="M37,29.3l1.1-6.4l-3.4-0.6v-7.7c0-0.4-0.4-0.8-0.8-0.8c-0.4,0-0.8,0.4-0.8,0.8v7.4l-1.5-0.3l-1.1,6.4l2.6,0.5v5.9l-1.5-0.3   l-1.1,6.4l2.6,0.5v5.9l-1.5-0.3l-1.1,6.4l2.6,0.5v6l-1.5-0.3l-1.1,6.4l2.6,0.5v5.9L31.7,72l-1.1,6.4l2.6,0.5v6.6   c0,0.4,0.4,0.8,0.8,0.8c0.4,0,0.8-0.4,0.8-0.8v-6.3l2.2,0.4l1.1-6.4l-3.4-0.6v-5.9L37,67l1.1-6.4L34.8,60v-6l2.2,0.4l1.1-6.4   l-3.4-0.6v-5.9l2.2,0.4l1.1-6.4l-3.4-0.6v-5.9L37,29.3z M35.7,77.7l-3.4-0.6l0.6-3.4l3.4,0.6L35.7,77.7z M35.7,65.2l-3.4-0.6   l0.6-3.4l3.4,0.6L35.7,65.2z M35.7,52.6L32.4,52l0.6-3.4l3.4,0.6L35.7,52.6z M35.7,40l-3.4-0.6l0.6-3.4l3.4,0.6L35.7,40z M33,23.5   l3.4,0.6l-0.6,3.4l-3.4-0.6L33,23.5z"/><path d="M69.5,40.7l-1.1-6.4l-1.4,0.2v-5.9l2.5-0.4l-1.1-6.4l-1.4,0.2v-7.4c0-0.4-0.4-0.8-0.8-0.8c-0.4,0-0.8,0.4-0.8,0.8v7.7   l-3.5,0.6l1.1,6.4l2.3-0.4v5.9l-3.5,0.6l1.1,6.4l2.3-0.4v5.9l-3.5,0.6l1.1,6.4l2.3-0.4v6l-3.5,0.6L63,67l2.3-0.4v5.9l-3.5,0.6   l1.1,6.4l2.3-0.4v6.3c0,0.4,0.4,0.8,0.8,0.8c0.4,0,0.8-0.4,0.8-0.8v-6.6l2.5-0.4L68.3,72l-1.4,0.2v-5.9l2.5-0.4l-1.1-6.4l-1.4,0.2   v-6l2.5-0.4l-1.1-6.4L66.9,47v-5.9L69.5,40.7z M63.7,24.1l3.4-0.6l0.6,3.4l-3.4,0.6L63.7,24.1z M67.6,77.2l-3.4,0.6l-0.6-3.4   l3.4-0.6L67.6,77.2z M67.6,64.6l-3.4,0.6l-0.6-3.4l3.4-0.6L67.6,64.6z M67.6,52l-3.4,0.6l-0.6-3.4l3.4-0.6L67.6,52z M63.7,36.6   l3.4-0.6l0.6,3.4L64.3,40L63.7,36.6z"/></g>
<!-- <text x="0" y="115" fill="#000000" font-size="5px" font-weight="bold" font-family="'Helvetica Neue', Helvetica, Arial-Unicode, Arial, Sans-serif">Created by Anton Gajdosik</text><text x="0" y="120" fill="#000000" font-size="5px" font-weight="bold" font-family="'Helvetica Neue', Helvetica, Arial-Unicode, Arial, Sans-serif">from the Noun Project</text> -->
</svg>

