<svg xmlns="http://www.w3.org/2000/svg" xmlns:xlink="http://www.w3.org/1999/xlink" xml:space="preserve" version="1.1" style="shape-rendering:geometricPrecision;text-rendering:geometricPrecision;image-rendering:optimizeQuality;" viewBox="1000 1000 48000 48000" x="0px" y="0px" fill-rule="evenodd" clip-rule="evenodd"><defs><style type="text/css">
   
    .str1 {stroke:white;stroke-width:282.22}
    .str0 {stroke:black;stroke-width:564.44}
    .fil0 {fill:none}
   
  </style></defs><g><g><circle class="fil0 str0" cx="25000" cy="25000" r="22931"/><path class="fil0 str0" d="M25000 5451c10797,0 19549,8752 19549,19549 0,10129 -7720,18307 -17571,19450 -1485,172 -2355,176 -3625,31 -4026,-462 -7729,-1902 -10696,-4321 -4397,-3584 -7206,-9044 -7206,-15160 0,-10797 8752,-19549 19549,-19549z"/><path class="fil0 str0" d="M25000 21827c1823,0 3301,1478 3301,3301 0,1777 -1404,3226 -3163,3298 -9,1 -27,-8 -27,1 2,72 -214,72 -214,0 0,-5 -11,0 -16,0 -1768,-63 -3182,-1516 -3182,-3299 0,-1823 1478,-3301 3301,-3301z"/><line class="fil0 str1" x1="21699" y1="25128" x2="12657" y2="40160"/><line class="fil0 str1" x1="21699" y1="25128" x2="15600" y2="42145"/><line class="fil0 str1" x1="22624" y1="27420" x2="25301" y2="44468"/><line class="fil0 str1" x1="28092" y1="26286" x2="31735" y2="43303"/><line class="fil0 str1" x1="28288" y1="25429" x2="34893" y2="41794"/><line class="fil0 str1" x1="27101" y1="27674" x2="21767" y2="44245"/><line class="fil0 str1" x1="26112" y1="28237" x2="18406" y2="43354"/><line class="fil0 str1" x1="22856" y1="27638" x2="28813" y2="44468"/><line class="fil0 str1" x1="24881" y1="28427" x2="10151" y2="37715"/><line class="fil0 str1" x1="23590" y1="28114" x2="8116" y2="34860"/><line class="fil0 str1" x1="22212" y1="26897" x2="5755" y2="21548"/><line class="fil0 str1" x1="22212" y1="26897" x2="5453" y2="25286"/><line class="fil0 str1" x1="22666" y1="22794" x2="5816" y2="28776"/><line class="fil0 str1" x1="22416" y1="23073" x2="6766" y2="32064"/><line class="fil0 str1" x1="21593" y1="25304" x2="10072" y2="12377"/><line class="fil0 str1" x1="21714" y1="24809" x2="12317" y2="10123"/><line class="fil0 str1" x1="24430" y1="21749" x2="7883" y2="15550"/><line class="fil0 str1" x1="24430" y1="21749" x2="6444" y2="18833"/><line class="fil0 str1" x1="22242" y1="22944" x2="21629" y2="5741"/><line class="fil0 str1" x1="22242" y1="22944" x2="25000" y2="5451"/><line class="fil0 str1" x1="26722" y1="22243" x2="14927" y2="8243"/><line class="fil0 str1" x1="26722" y1="22243" x2="18007" y2="6739"/><line class="fil0 str1" x1="24124" y1="21700" x2="34865" y2="8119"/><line class="fil0 str1" x1="24294" y1="21800" x2="37709" y2="10146"/><line class="fil0 str1" x1="28094" y1="23974" x2="31212" y2="6459"/><line class="fil0 str1" x1="28094" y1="23974" x2="28000" y2="5500"/><line class="fil0 str1" x1="28293" y1="25358" x2="39895" y2="12338"/><line class="fil0 str1" x1="28218" y1="25867" x2="41775" y2="14957"/><line class="fil0 str1" x1="26513" y1="21996" x2="43376" y2="18314"/><line class="fil0 str1" x1="26722" y1="22243" x2="44277" y2="21733"/><line class="fil0 str1" x1="27802" y1="23382" x2="43379" y2="31654"/><line class="fil0 str1" x1="27802" y1="23382" x2="41842" y2="34887"/><line class="fil0 str1" x1="27101" y1="27674" x2="44547" y2="24694"/><line class="fil0 str1" x1="26901" y1="27827" x2="44320" y2="27996"/><line class="fil0 str1" x1="25476" y1="28395" x2="40153" y2="37293"/><line class="fil0 str1" x1="24601" y1="28405" x2="37731" y2="39765"/><path class="fil0 str0" d="M25000 23500c906,0 1641,735 1641,1641 0,883 -698,1603 -1573,1639 -4,1 -13,-4 -13,1 1,35 -106,35 -106,0 0,-3 -6,0 -8,0 -879,-31 -1582,-754 -1582,-1640 0,-906 735,-1641 1641,-1641z"/></g></g>
  <!-- <text x="0" y="50015" fill="#000000" font-size="5px" font-weight="bold" font-family="'Helvetica Neue', Helvetica, Arial-Unicode, Arial, Sans-serif">Created by Oleksandr Panasovskyi</text><text x="0" y="50020" fill="#000000" font-size="5px" font-weight="bold" font-family="'Helvetica Neue', Helvetica, Arial-Unicode, Arial, Sans-serif">from the Noun Project</text> -->
  </svg>