<svg xmlns="http://www.w3.org/2000/svg" xmlns:xlink="http://www.w3.org/1999/xlink" xml:space="preserve" version="1.1" style="shape-rendering:geometricPrecision;text-rendering:geometricPrecision;image-rendering:optimizeQuality;" viewBox="0 0 50000 62500" x="0px" y="0px" fill-rule="evenodd" clip-rule="evenodd"><defs><style type="text/css">
   
    .str0 {stroke:white;stroke-width:864.44}
    .fil0 {fill:none}
   
  </style></defs><g><g><path class="fil0 str0" d="M27535 13441c187,51 388,115 323,259 -525,1162 -652,1489 -904,2873 -10,54 -46,64 -65,36 -1066,-1552 -6033,-1768 -7420,-1281 -250,88 -241,73 -121,-86 812,-1083 4831,-2721 8187,-1801z"/><path class="fil0 str0" d="M32253 11785l-2326 11036 -64 12454c0,2599 -2126,4725 -4725,4725l-6231 0c-2599,0 -4725,-2126 -4725,-4725l0 -5641 -2926 0c-292,0 -531,-240 -531,-532l0 -6421c0,-292 239,-532 531,-532l4823 0c292,0 400,271 531,532l1880 3746 -2714 -14642c2410,-2520 14382,-2236 16477,0zm10574 3991c3760,-451 5833,2575 2818,3731 -1070,410 -2334,673 -3385,994 -3708,1132 -4378,1496 -7355,3500 -1388,935 -2502,1823 -3407,2662 -131,121 -92,-880 -84,-1347l50 -2880c789,-1615 6376,-6062 11363,-6660zm11 13199c2920,661 2818,5973 2434,6213 -1158,723 -13836,-2655 -13836,-3063 0,-842 11,-2913 2,-3757 0,-16 105,-90 266,-30 3103,1162 7990,-76 11134,637zm-37203 -5496l3402 0c119,0 216,97 216,215l0 4438c0,119 -97,216 -216,216l-3402 0c-119,0 -216,-97 -216,-216l0 -429 -2353 0c-86,0 -156,-70 -156,-155l0 -3269c0,-85 70,-155 156,-155l2353 0 0 -430c0,-118 97,-215 216,-215z"/></g></g>
  <!-- <text x="0" y="50015" fill="#000000" font-size="5px" font-weight="bold" font-family="'Helvetica Neue', Helvetica, Arial-Unicode, Arial, Sans-serif">Created by Oleksandr Panasovskyi</text><text x="0" y="50020" fill="#000000" font-size="5px" font-weight="bold" font-family="'Helvetica Neue', Helvetica, Arial-Unicode, Arial, Sans-serif">from the Noun Project</text> -->
  </svg>