<svg xmlns:sketch="http://www.bohemiancoding.com/sketch/ns" xmlns="http://www.w3.org/2000/svg" xmlns:xlink="http://www.w3.org/1999/xlink" version="1.1" x="0px" y="0px" viewBox="-543 297 100 125" enable-background="new -543 297 100 100" xml:space="preserve"><title>bottombracket</title><desc>Created with Sketch.</desc><path d="M-449,378.1c-0.2-0.3-0.4-0.4-0.6-0.6l-9.1-9.6l3.4-3.4c2.1-2.1,1.7-4.4-0.7-6.8l-9.3-9.3c-0.6-0.6-1.4-1-2.3-1  c-0.4,0-0.6,0.1-1.2,0.2c-0.2,0-0.4-0.1-0.8-0.4l-22.1-22.1c0,0,0-0.2-0.1-0.9c-0.1-1.7-0.4-2.7-1.3-3.6l-9.7-9.7  c-0.2-0.2-0.6-0.5-1-0.8c-1.5-0.9-3.2-1.2-4.8-0.1c-0.2,0.1-0.5,0.3-0.7,0.5c-0.4,0.4-1.6,1.5-3.3,3.3l-10.1-10.1  c-1.6-1.6-3.2-1.9-4.8-1.3c-1.2,0.4-7.9,6.4-9.4,8.5c-1.3,1.9-1.2,3.8-0.1,5.2c0.2,0.3,0.4,0.4,0.6,0.6l10.2,10.8  c-0.1,0.1-0.1,0.1-0.2,0.2c-0.8,0.8-1.6,1.6-2.3,2.3c-0.7,0.7-0.7,0.7-0.9,0.9c-0.2,0.2-0.4,0.5-0.6,0.9c-0.9,1.7-0.7,3.8,1.1,5.6  l8.9,8.9c1,1,1.9,1.4,3.3,1.5c0.1,0,0.2,0,0.2,0c0.2,0,0.2,0,0.3,0.2l23.3,23.3c0.1,0.1,0.1,0.1,0.1,0.6c0.1,1.3,0.3,2,1.2,2.9  l10.7,10.7c1.7,1.7,3.7,1.5,5,0.1c0.2-0.2,0.4-0.4,0.5-0.6l3.3-3.3l9,9c1.6,1.6,3.2,1.9,4.8,1.3c1.2-0.4,7.9-6.4,9.4-8.5  C-447.7,381.4-447.9,379.5-449,378.1z M-533.7,313.5l-0.1-0.1c0,0,0,0,0.2-0.3c0.5-0.8,2.2-2.4,4.2-4.2c0.9-0.8,1.7-1.5,2.4-2.1  c0.3-0.3,0.6-0.5,0.8-0.6c0,0,0.1,0,0,0c0.1,0,0.2,0,0.6,0.4l9.9,9.9l-7.7,8.1l-10.1-10.7L-533.7,313.5z M-478.6,382l-10.3-10.3  c0,0,0,0,0-0.3c-0.1-1.4-0.4-2.2-1.3-3.2l-23.3-23.3c-0.8-0.8-1.6-1.2-2.7-1.3c-0.1,0-0.2,0-0.4,0c-0.5-0.1-0.6-0.1-0.8-0.3  l-8.9-8.9c-0.5-0.5-0.5-0.6-0.4-0.8c0.1-0.1,0.1-0.1,0.8-0.8c0.7-0.7,1.5-1.5,2.3-2.3c0,0,0.1-0.1,0.1-0.1l0,0l0.4-0.4  c2.2-2.2,4.4-4.4,6.4-6.5c5.6-5.7,9.3-9.3,10-10c0.2-0.1,0.4-0.1,0.7,0.1c0.1,0.1,0.3,0.2,0.3,0.2l9.7,9.7c0.1,0.1,0.1,0.2,0.2,0.9  c0.1,1.8,0.3,2.7,1.3,3.6l22.1,22.1c1.6,1.6,3,1.9,4.6,1.5l9,9c1,1,1,0.8,0.7,1.1L-478.6,382z M-452.4,380.9  c-0.5,0.8-2.2,2.4-4.2,4.2c-0.9,0.8-1.7,1.5-2.4,2.1c-0.3,0.3-0.6,0.5-0.8,0.6c0,0-0.1,0,0,0c-0.1,0-0.2,0-0.6-0.4l-8.9-8.9l8-7.6  l8.9,9.4l0.2,0.2l0.1,0.1C-452.1,380.6-452.2,380.6-452.4,380.9z"/>
<!-- <text x="-543" y="412" fill="#000000" font-size="5px" font-weight="bold" font-family="'Helvetica Neue', Helvetica, Arial-Unicode, Arial, Sans-serif">Created by Johannes S</text><text x="-543" y="417" fill="#000000" font-size="5px" font-weight="bold" font-family="'Helvetica Neue', Helvetica, Arial-Unicode, Arial, Sans-serif">from the Noun Project</text> -->
</svg>