<svg xmlns="http://www.w3.org/2000/svg" xmlns:xlink="http://www.w3.org/1999/xlink" xmlns:sketch="http://www.bohemiancoding.com/sketch/ns" viewBox="0 0 100 125" version="1.1" x="0px" y="0px"><title>stem</title><desc>Created with Sketch.</desc><g stroke="none" stroke-width="1" fill="none" fill-rule="evenodd" sketch:type="MSPage"><g sketch:type="MSArtboardGroup" fill="#000000"><path d="M74.2001054,30.994 L74.2001054,30.994 C71.7081054,30.992 69.4701054,29.99 67.8361054,28.358 C66.2041054,26.722 65.2001054,24.486 65.2001054,21.994 C65.2001054,19.502 66.2041054,17.264 67.8361054,15.63 C69.4701054,13.998 71.7081054,12.994 74.2001054,12.994 C76.6921054,12.994 78.9281054,13.998 80.5641054,15.63 C82.1961054,17.264 83.1981054,19.502 83.2001054,21.994 C83.1981054,24.112 82.4741054,26.042 81.2561054,27.58 C79.6001054,29.664 77.0641054,30.992 74.2001054,30.994 M58.5841054,15.958 L61.9621054,12.688 L63.7981054,14.194 C62.1661054,16.366 61.2001054,19.066 61.2001054,21.994 C61.2001054,29.174 67.0201054,34.992 74.2001054,34.994 C77.6441054,34.994 80.7861054,33.648 83.1121054,31.458 L85.0661054,33.062 L81.5741054,37.5 C81.4561054,37.588 81.2461054,37.728 80.9741054,37.862 C80.5421054,38.078 79.9781054,38.264 79.3761054,38.264 L79.3661054,38.264 L79.1461054,38.256 C78.7861054,38.23 78.4321054,38.214 78.0781054,38.214 L78.0241054,38.214 C76.9481054,38.214 75.8161054,38.394 74.7261054,38.888 C73.6141054,39.384 72.5781054,40.136 71.4161054,41.18 C71.0101054,41.55 70.3601054,42.204 69.4201054,43.168 C63.1101054,49.66 44.8821054,69.216 43.8381054,70.336 C43.6661054,70.5 43.2081054,70.948 42.6901054,71.586 C42.0681054,72.372 41.3241054,73.396 40.9741054,74.788 C40.8801054,75.218 40.5501054,75.78 40.2121054,76.188 C40.0441054,76.394 39.8841054,76.562 39.7721054,76.672 L39.6501054,76.788 C39.4221054,76.962 38.5061054,77.66 37.1801054,78.658 C34.8761054,80.394 31.3421054,83.032 28.1041054,85.35 C26.4841054,86.508 24.9401054,87.586 23.6721054,88.424 C23.0381054,88.844 22.4741054,89.202 22.0161054,89.474 C21.5641054,89.746 21.1981054,89.936 21.0601054,89.99 C19.8321054,90.512 18.8541054,91.118 18.0661054,91.52 C17.2801054,91.928 16.7421054,92.1 16.3341054,92.1 L16.3161054,92.1 C15.9061054,92.09 15.4041054,91.994 14.4421054,91.244 C14.0961054,90.966 13.9421054,90.75 13.8681054,90.61 L13.7801054,90.266 C13.7781054,90.132 13.8181054,89.938 13.9261054,89.7 C14.0801054,89.346 14.3881054,88.934 14.6561054,88.646 L14.9941054,88.312 L15.0821054,88.234 L15.0901054,88.228 L15.1921054,88.146 L20.0481054,83.074 L19.3401054,81.786 C19.3341054,81.776 19.0981054,81.346 18.8161054,80.874 C18.6741054,80.636 18.5241054,80.39 18.3681054,80.156 L18.1081054,79.798 C18.0241054,79.708 17.9721054,79.62 17.8221054,79.484 C17.7181054,79.348 17.4981054,79.04 17.2601054,78.692 C16.8381054,78.082 16.3141054,77.296 15.9001054,76.67 C15.6181054,76.242 15.3841054,75.888 15.2661054,75.706 C15.1921054,75.568 15.0941054,75.416 14.9601054,75.258 C14.7661054,75.036 14.4881054,74.82 14.1721054,74.684 C13.8601054,74.548 13.5261054,74.49 13.2321054,74.49 L13.2221054,74.49 C12.6581054,74.496 12.2321054,74.652 11.8241054,74.848 C11.4181054,75.048 11.0181054,75.312 10.5521054,75.672 C9.96210536,76.132 9.14410536,76.778 8.26810536,77.292 C7.42210536,77.8 6.54010536,78.112 6.01410536,78.112 L5.97210536,78.112 C5.55010536,78.086 5.37810536,78.05 4.98210536,77.654 C4.11810536,76.686 4.00810536,76.128 4.00010536,75.746 C4.00010536,75.478 4.07010536,75.21 4.24010536,74.878 C4.40810536,74.552 4.67810536,74.188 4.99810536,73.83 C5.53610536,73.224 6.15410536,72.65 6.72210536,72.056 C7.00610536,71.754 7.28210536,71.452 7.54410536,71.06 C7.73610536,70.76 7.96410536,70.386 8.06410536,69.852 C8.20610536,69.71 8.39810536,69.528 8.61410536,69.336 C10.3081054,67.806 13.8341054,64.998 17.0101054,62.494 C18.6041054,61.24 20.1161054,60.052 21.3001054,59.114 C21.8901054,58.646 22.3981054,58.238 22.8001054,57.91 C23.0981054,57.664 23.3161054,57.484 23.5121054,57.308 C23.7621054,57.34 24.0481054,57.358 24.3701054,57.358 L24.3741054,57.358 C24.8461054,57.358 25.4021054,57.322 26.0881054,57.234 C26.9981054,57.118 27.7101054,57.014 28.4001054,56.826 C29.4441054,56.56 30.3921054,55.964 31.1081054,55.272 C31.8501054,54.578 32.5681054,53.764 33.8341054,52.498 C34.7481054,51.586 36.5681054,49.654 38.8321054,47.226 C45.6101054,39.954 56.2281054,28.354 56.2301054,28.35 L56.3401054,28.23 L56.4281054,28.094 C56.4661054,28.034 57.0161054,27.194 57.5801054,25.93 C58.1361054,24.662 58.7401054,22.984 58.7501054,21.092 C58.7501054,20.37 58.6541054,19.61 58.3961054,18.854 C58.2041054,18.288 58.1441054,17.836 58.1441054,17.464 C58.1461054,16.882 58.2921054,16.484 58.4201054,16.226 L58.5781054,15.966 L58.5841054,15.958 M64.8541054,9.886 L67.7521054,7.078 L70.2981054,5.002 C70.6521054,5.014 72.6061054,5.12 75.2721054,5.984 C78.1461054,6.918 81.8381054,8.716 85.3561054,12.232 L85.3741054,12.252 L85.3921054,12.268 L85.4021054,12.278 C85.5561054,12.424 87.3001054,14.134 88.9521054,16.542 C90.5041054,18.778 91.9021054,21.616 92.0701054,24.162 L87.5401054,29.918 L85.5701054,28.3 C86.6081054,26.432 87.2001054,24.276 87.2001054,21.994 C87.1981054,14.812 81.3801054,8.994 74.2001054,8.994 C71.3981054,8.994 68.8041054,9.88 66.6821054,11.386 L64.8541054,9.886 M70.2601054,1 L68.8761054,1 L65.0901054,4.088 L55.7161054,13.168 L55.6981054,13.186 C55.5921054,13.298 55.2161054,13.702 54.8521054,14.418 C54.4881054,15.132 54.1421054,16.174 54.1441054,17.464 C54.1441054,18.28 54.2821054,19.188 54.6121054,20.148 C54.7001054,20.408 54.7501054,20.724 54.7501054,21.092 C54.7621054,22.056 54.3681054,23.33 53.9261054,24.302 C53.7081054,24.792 53.4881054,25.208 53.3261054,25.494 L53.1521054,25.788 C52.8041054,26.168 51.7521054,27.316 50.2781054,28.926 C47.5421054,31.906 43.3601054,36.458 39.5401054,40.586 C35.7261054,44.706 32.2421054,48.436 31.0061054,49.67 C29.2441054,51.448 28.4081054,52.4 27.9901054,52.672 C27.7801054,52.816 27.6761054,52.87 27.3361054,52.97 C27.0021054,53.064 26.4401054,53.16 25.5861054,53.266 C25.0381054,53.336 24.6461054,53.358 24.3801054,53.358 L24.3761054,53.358 C24.0181054,53.356 23.9141054,53.326 23.8681054,53.316 L23.7241054,53.274 C23.6261054,53.248 23.4081054,53.164 22.9901054,53.158 C22.9801054,53.156 22.9701054,53.156 22.9601054,53.156 C22.6501054,53.156 22.2821054,53.248 22.0321054,53.372 C21.6361054,53.566 21.4681054,53.738 21.3181054,53.868 L20.8921054,54.284 L20.8821054,54.294 C20.7781054,54.392 20.3761054,54.73 19.8441054,55.158 C17.9521054,56.684 14.1881054,59.602 10.9001054,62.236 C9.25410536,63.556 7.72610536,64.802 6.58010536,65.796 C6.00410536,66.296 5.53010536,66.726 5.15210536,67.104 C4.96210536,67.296 4.79810536,67.47 4.63010536,67.686 C4.54610536,67.796 4.45810536,67.914 4.35610536,68.102 C4.27410536,68.28 4.13210536,68.496 4.09210536,69 C3.97010536,69.144 3.77210536,69.362 3.52810536,69.602 C3.11010536,70.024 2.56410536,70.548 2.01010536,71.172 C1.56210536,71.676 1.08210536,72.282 0.688105365,73.038 C0.298105365,73.788 -0.0018946352,74.712 0.0001053648,75.746 C-0.0098946352,77.292 0.692105365,78.902 2.02610536,80.348 C3.07210536,81.532 4.56410536,82.112 5.88610536,82.112 L5.97210536,82.112 C7.68210536,82.094 9.10210536,81.426 10.2921054,80.742 C11.2781054,80.164 12.1161054,79.522 12.6941054,79.074 C12.8561054,79.318 13.0301054,79.58 13.2081054,79.842 C13.5601054,80.37 13.9221054,80.904 14.2221054,81.332 C14.3741054,81.546 14.5081054,81.734 14.6301054,81.896 L14.8241054,82.138 L14.9621054,82.292 C14.9781054,82.306 14.9941054,82.32 15.0101054,82.338 L15.0941054,82.462 L12.4661054,85.208 C12.2421054,85.4 11.7541054,85.842 11.2361054,86.5 C10.9041054,86.922 10.5581054,87.436 10.2781054,88.06 C9.99810536,88.68 9.78010536,89.424 9.78010536,90.266 C9.77810536,90.976 9.94810536,91.748 10.3221054,92.458 C10.6921054,93.172 11.2481054,93.814 11.9501054,94.372 C13.3421054,95.496 14.8341054,96.1 16.2801054,96.1 L16.3161054,96.1 C17.7561054,96.094 18.9201054,95.576 19.8941054,95.078 C20.8781054,94.568 21.7381054,94.042 22.6141054,93.678 C23.2181054,93.418 23.8381054,93.054 24.6241054,92.568 C27.3241054,90.884 31.6561054,87.748 35.3701054,85.002 C39.0781054,82.26 42.1301054,79.926 42.1361054,79.922 L42.1741054,79.894 L42.2081054,79.864 C42.2741054,79.808 42.7541054,79.402 43.3181054,78.708 C43.8741054,78.012 44.5441054,77.034 44.8661054,75.714 C44.9341054,75.354 45.3561054,74.63 45.7981054,74.102 C46.0161054,73.834 46.2281054,73.602 46.3821054,73.446 L46.5581054,73.27 L46.6001054,73.23 L46.6061054,73.224 L46.6641054,73.172 L46.7181054,73.114 C46.7221054,73.11 48.2781054,71.438 50.6601054,68.888 C54.2341054,65.064 59.6521054,59.272 64.4101054,54.23 C66.7861054,51.71 69.0001054,49.376 70.7321054,47.572 C71.5961054,46.67 72.3421054,45.9 72.9221054,45.308 C73.4981054,44.722 73.9341054,44.294 74.0921054,44.154 C75.0821054,43.262 75.7961054,42.788 76.3521054,42.542 C76.9121054,42.3 77.3481054,42.22 78.0781054,42.214 C78.3101054,42.214 78.5701054,42.224 78.8601054,42.246 L79.3661054,42.264 C80.8621054,42.262 82.0761054,41.802 82.9181054,41.362 C83.7601054,40.918 84.2521054,40.482 84.3421054,40.404 L84.4701054,40.29 L96.0821054,25.532 L96.0881054,24.848 L96.0881054,24.734 C96.0601054,20.54 93.9961054,16.796 92.0661054,14.014 C90.2481054,11.426 88.4661054,9.676 88.1841054,9.404 C84.0221054,5.242 79.5821054,3.132 76.1841054,2.078 C72.7801054,1.022 70.4081054,1.002 70.2601054,1" sketch:type="MSShapeGroup" transform="translate(49.000000, 50.000000) scale(-1, 1) translate(-49.000000, -50.000000) "/></g></g>
<!-- <text x="0" y="115" fill="#000000" font-size="5px" font-weight="bold" font-family="'Helvetica Neue', Helvetica, Arial-Unicode, Arial, Sans-serif">Created by Johannes S</text><text x="0" y="120" fill="#000000" font-size="5px" font-weight="bold" font-family="'Helvetica Neue', Helvetica, Arial-Unicode, Arial, Sans-serif">from the Noun Project</text> -->
</svg>