<svg xmlns:sketch="http://www.bohemiancoding.com/sketch/ns" xmlns="http://www.w3.org/2000/svg" xmlns:xlink="http://www.w3.org/1999/xlink" version="1.1" x="0px" y="0px" viewBox="2 7 100 90" enable-background="new 0 0 100 100" xml:space="preserve"><title>pedal</title><desc>Created with Sketch.</desc><path d="M84.9,20.2H31.2c-5.6,0-10.1,4.6-10.1,10.3c0,1.1,0.9,1.9,1.9,1.9c1.1,0,1.9-0.9,1.9-1.9c0-3.6,2.9-6.5,6.3-6.5h8.5v19.9  H6.9c-1.1,0-1.9,0.9-1.9,1.9v10.5c0,1.1,0.9,1.9,1.9,1.9h32.8V76h-8.5c-3.5,0-6.3-2.9-6.3-6.5c0-1.1-0.9-1.9-1.9-1.9  c-1.1,0-1.9,0.9-1.9,1.9c0,5.7,4.5,10.3,10.1,10.3h53.7c5.6,0,10.1-4.6,10.1-10.3v-39C95,24.8,90.5,20.2,84.9,20.2z M49.5,58.1h22.7  V76H49.5V58.1z M72.2,24v19.9H49.5V24h21.8H72.2z M41.7,54.4H8.9v-6.7h32.8c1.1,0,1.9-0.9,1.9-1.9V24h2.2v21.8  c0,1.1,0.9,1.9,1.9,1.9h26.5c1.1,0,1.9-0.9,1.9-1.9V24h2.1v52h-2.1V56.3c0-1.1-0.9-1.9-1.9-1.9H47.7c-1.1,0-1.9,0.9-1.9,1.9V76h-2.2  V56.3C43.6,55.2,42.7,54.4,41.7,54.4z M91.2,69.5c0,3.6-2.8,6.5-6.3,6.5h-3V24h3c3.5,0,6.3,2.9,6.3,6.5V69.5z"/>
<!-- <text x="0" y="115" fill="#000000" font-size="5px" font-weight="bold" font-family="'Helvetica Neue', Helvetica, Arial-Unicode, Arial, Sans-serif">Created by Johannes S</text><text x="0" y="120" fill="#000000" font-size="5px" font-weight="bold" font-family="'Helvetica Neue', Helvetica, Arial-Unicode, Arial, Sans-serif">from the Noun Project</text> -->
</svg>