<svg xmlns="http://www.w3.org/2000/svg" xmlns:xlink="http://www.w3.org/1999/xlink" xml:space="preserve" version="1.1" style="shape-rendering:geometricPrecision;text-rendering:geometricPrecision;image-rendering:optimizeQuality;" viewBox="2050 5800 45500 41660" x="0px" y="0px" fill-rule="evenodd" clip-rule="evenodd"><defs><style type="text/css">
   
    .str0 {stroke:white;stroke-width:1564.44}
    .fil0 {fill:none}
   
  </style></defs><g><g><path class="fil0 str0" d="M19776 26917c1619,1407 2943,2955 4253,4945"/><path class="fil0 str0" d="M25794 17534c1340,2164 2728,3843 4533,5422"/><g><path class="fil0 str0" d="M23444 24246c-4263,2717 -6601,5198 -9275,9885"/><path class="fil0 str0" d="M14352 33833c-235,407 -520,794 -856,1151 -2324,2466 -6208,2581 -8674,257 -2466,-2324 -2581,-6208 -257,-8674 383,-407 809,-749 1264,-1028"/><path class="fil0 str0" d="M14612 16134c223,-372 529,-789 838,-1118 2324,-2466 6208,-2581 8674,-257 2466,2324 2581,6208 257,8674 -374,397 -789,734 -1233,1009"/><path class="fil0 str0" d="M14689 15995c-2460,4418 -4797,6898 -9318,9845"/></g><g><path class="fil0 str0" d="M44498 24246c-4263,2717 -6601,5198 -9275,9885"/><path class="fil0 str0" d="M35406 33833c-235,407 -520,794 -856,1151 -2324,2466 -6208,2581 -8674,257 -2466,-2324 -2581,-6208 -257,-8674 383,-407 809,-749 1264,-1028"/><path class="fil0 str0" d="M35666 16134c223,-372 529,-789 838,-1118 2324,-2466 6208,-2581 8674,-257 2466,2324 2581,6208 257,8674 -374,397 -789,734 -1233,1009"/><path class="fil0 str0" d="M35743 15995c-2460,4418 -4797,6898 -9318,9845"/></g><circle class="fil0 str0" cx="19826" cy="19326" r="3174"/><circle class="fil0 str0" cx="9164" cy="30826" r="3174"/><circle class="fil0 str0" cx="30371" cy="30856" r="3174"/><circle class="fil0 str0" cx="40969" cy="19326" r="3174"/></g></g>
  
  <!--
<text x="0" y="50015" fill="#000000" font-size="5px" font-weight="bold" font-family="'Helvetica Neue', Helvetica, Arial-Unicode, Arial, Sans-serif">Created by Oleksandr Panasovskyi</text><text x="0" y="50020" fill="#000000" font-size="5px" font-weight="bold" font-family="'Helvetica Neue', Helvetica, Arial-Unicode, Arial, Sans-serif">from the Noun Project</text> 
-->

  </svg>