<svg xmlns="http://www.w3.org/2000/svg" xmlns:xlink="http://www.w3.org/1999/xlink" version="1.2" baseProfile="tiny" x="0px" y="0px" viewBox="0 0 128 160" overflow="auto" xml:space="preserve"><path fill="none" stroke="#000000" stroke-width="4" stroke-linecap="round" stroke-linejoin="round" stroke-miterlimit="10" d="  M102,48H82c-5.5,0-10-4.5-10-10V12c0-5.5,4.5-10,10-10h20c5.5,0,10,4.5,10,10v26C112,43.5,107.5,48,102,48z"/><polyline fill="none" stroke="#000000" stroke-width="4" stroke-linecap="round" stroke-linejoin="round" stroke-miterlimit="10" points="  113,24 117,24 123,27 123,32 117,35 113,35 "/><path fill="none" stroke="#000000" stroke-width="4" stroke-linecap="round" stroke-linejoin="round" stroke-miterlimit="10" d="  M100,65c0,0,0-23,0-27s-4-4-4-4h-8c0,0-4,0-4,4s0,27,0,27"/><path fill="none" stroke="#000000" stroke-width="4" stroke-linecap="round" stroke-linejoin="round" stroke-miterlimit="10" d="  M105,65l21,7l-3,9c0,0-6,9-14,9c-7,0-67,0-97,36H2c0,0,13-37,69-50c0,0,6-1,6-11H105"/><line fill="none" stroke="#000000" stroke-width="4" stroke-linecap="round" stroke-linejoin="round" stroke-miterlimit="10" x1="107" y1="47" x2="107" y2="64.3"/><line fill="none" stroke="#000000" stroke-width="4" stroke-linecap="round" stroke-linejoin="round" stroke-miterlimit="10" x1="77" y1="65" x2="77" y2="47"/><path fill="none" stroke="#000000" stroke-width="4" stroke-linecap="round" stroke-linejoin="round" stroke-miterlimit="10" d="  M118,65"/>
<!-- <text x="0" y="143" fill="#000000" font-size="5px" font-weight="bold" font-family="'Helvetica Neue', Helvetica, Arial-Unicode, Arial, Sans-serif">Created by Juraj Sedlák</text><text x="0" y="148" fill="#000000" font-size="5px" font-weight="bold" font-family="'Helvetica Neue', Helvetica, Arial-Unicode, Arial, Sans-serif">from the Noun Project</text> -->
</svg>