<svg xmlns="http://www.w3.org/2000/svg" xmlns:xlink="http://www.w3.org/1999/xlink" xml:space="preserve" version="1.1" style="shape-rendering:geometricPrecision;text-rendering:geometricPrecision;image-rendering:optimizeQuality;" viewBox="4200 1500 41800 47500" x="0px" y="0px" fill-rule="evenodd" clip-rule="evenodd"><defs><style type="text/css">
   
    .str0 {stroke:white;stroke-width:564.44}
    .str1 {stroke:white;stroke-width:564.44}
    .fil0 {fill:none}
    .fil1 {fill:white}
   
  </style></defs><g><path class="fil0 str0" d="M26936 1522c585,48 1165,117 1737,207 -101,987 464,1896 1354,2102 885,204 1786,-357 2132,-1279 559,178 1108,376 1647,593 -304,932 44,1928 856,2325 807,393 1797,61 2346,-739 504,299 995,616 1473,950 -486,834 -366,1866 329,2428 690,559 1715,467 2430,-172 424,404 833,823 1226,1257 -646,703 -754,1722 -209,2420 544,696 1554,839 2391,388 248,374 486,756 713,1144 -770,555 -1083,1525 -697,2317 386,791 1341,1141 2250,878 215,543 410,1096 585,1658 -870,370 -1389,1241 -1191,2097 197,855 1042,1410 1983,1363 87,576 154,1159 199,1748 -927,167 -1624,898 -1624,1774 0,877 699,1608 1627,1774 -33,451 -79,899 -138,1343 -942,-31 -1779,539 -1961,1398 -183,861 354,1725 1233,2078 -164,565 -348,1121 -553,1668l0 0c-14,-4 -28,-8 -42,-11l-1 0c-100,-26 -201,-43 -300,-54l0 0c-15,-2 -29,-3 -43,-4l-1 0c-14,-1 -28,-3 -42,-3l-1 -1c-85,-5 -169,-6 -252,-1l-2 0c-13,0 -26,1 -39,2l-4 0c-13,1 -25,2 -38,4l-4 0c-13,1 -26,3 -38,4l-3 0c-67,8 -133,19 -198,33l-5 1c-11,3 -22,5 -33,8l-9 2c-11,2 -22,5 -32,8l-9 2c-11,3 -21,6 -31,9l-11 3c-10,3 -20,6 -30,9l-8 2c-47,15 -93,31 -139,49 -3,2 -6,3 -9,4 -9,4 -18,7 -27,11l-13 5c-8,4 -16,8 -25,11l-14 7c-8,3 -16,7 -23,11 -6,2 -11,5 -16,7 -7,4 -15,8 -22,11 -5,3 -10,5 -15,8 -8,4 -15,8 -23,12 -5,2 -9,5 -14,7 -27,15 -53,30 -80,47 -4,2 -9,5 -13,8 -7,4 -14,8 -20,13 -5,3 -11,6 -16,10 -6,4 -13,8 -19,13 -5,3 -11,7 -16,11 -6,4 -12,8 -18,12 -6,4 -11,9 -17,13 -6,4 -12,8 -17,12 -6,5 -12,9 -17,13 -6,5 -11,9 -17,13 -6,5 -12,10 -18,15 -5,4 -10,8 -14,12 -8,6 -15,12 -23,19 -5,4 -11,9 -16,14 -8,7 -16,14 -24,22 -4,3 -8,7 -12,11 -7,6 -13,12 -19,18 -5,4 -9,8 -13,13 -6,5 -12,11 -17,17 -5,4 -9,9 -13,13 -6,6 -12,12 -17,18 -4,5 -9,9 -13,14 -5,6 -11,12 -16,18 -4,4 -8,9 -12,14 -6,6 -11,13 -17,19 -3,4 -7,9 -11,13 -6,8 -12,16 -18,23 -3,4 -6,7 -8,11 -9,11 -18,22 -26,34 -2,2 -4,5 -6,8 -6,8 -13,17 -19,27 -3,4 -6,8 -9,13 -5,7 -10,15 -15,22 -4,5 -7,10 -10,15 -5,8 -9,15 -14,22 -3,5 -6,10 -9,15 -5,8 -9,15 -13,23 -3,5 -6,10 -9,15 -5,8 -9,16 -14,24 -2,5 -5,10 -7,14 -5,9 -10,18 -14,27 -2,4 -5,9 -7,13 -6,13 -13,26 -19,40 -6,13 -12,26 -18,40 -2,4 -4,9 -6,14 -4,9 -7,17 -11,26 -2,6 -4,11 -6,17 -4,8 -7,16 -10,24 -2,6 -4,12 -6,18 -3,8 -6,16 -9,24 -2,5 -3,11 -5,17 -3,8 -6,17 -8,25 -2,5 -4,11 -5,17 -3,8 -5,17 -8,25 -1,6 -3,11 -4,16 -3,10 -5,19 -8,29 -1,4 -2,9 -3,13 -3,14 -7,28 -10,42 0,3 -1,6 -2,10 -2,10 -4,21 -6,31 -1,6 -2,12 -3,17 -1,9 -3,17 -4,26 -1,6 -2,12 -3,18 -1,8 -2,16 -3,24 -1,6 -2,13 -3,19 -1,8 -2,15 -3,23 0,6 -1,13 -2,20 0,7 -1,15 -2,23 0,6 -1,13 -1,19 -1,8 -1,16 -2,24 0,6 0,12 -1,18 0,9 0,19 0,28 -1,5 -1,10 -1,15 0,14 0,27 0,41 0,6 0,12 0,19 0,7 0,15 1,23 0,7 0,14 0,21 1,7 1,14 1,21 1,8 1,15 2,22 0,7 1,14 1,21 1,7 1,14 2,21 1,7 1,14 2,21 1,7 2,15 2,22 1,7 2,13 3,20 1,7 2,15 3,22 1,6 2,12 3,18 1,9 2,17 3,25 1,3 2,7 2,10 4,21 8,42 12,63l1 6c2,10 5,19 7,29 1,4 2,8 3,12 2,10 4,19 6,28 1,4 3,9 4,14 2,9 5,17 7,26l4 14c3,9 5,18 8,27l4 13c3,10 6,19 9,28l4 12c3,9 6,19 9,28l3 7c17,48 35,94 56,140l3 7c5,10 9,21 14,31l4 7c5,10 10,21 15,31l3 7c6,10 11,21 16,31l3 6c6,10 12,21 18,32l1 3c40,70 83,139 132,206l2 4c8,10 15,20 23,30l3 4c8,10 16,20 24,31l1 1c61,77 128,150 200,220l1 1c10,10 20,19 31,28l1 2c75,68 155,132 240,190l0 1c-286,512 -590,1012 -913,1500 -838,-456 -1853,-314 -2398,384 -548,701 -436,1726 217,2430 -392,434 -800,853 -1223,1257 -715,-645 -1745,-741 -2438,-179 -698,565 -816,1604 -321,2440 -478,335 -968,653 -1471,952 -547,-808 -1543,-1144 -2353,-749 -818,399 -1165,1404 -851,2340 -539,218 -1088,418 -1646,596 -342,-931 -1248,-1498 -2137,-1293 -896,207 -1462,1126 -1352,2121 -572,91 -1151,161 -1737,209 -113,-999 -873,-1771 -1795,-1771 -929,0 -1695,785 -1798,1795 -586,-40 -1167,-102 -1741,-184 133,-1012 -437,-1956 -1346,-2165 -917,-212 -1851,398 -2168,1381 -561,-172 -1113,-363 -1655,-575 378,-965 36,-2032 -812,-2445 -854,-417 -1912,-22 -2437,882 -507,-294 -1002,-606 -1484,-935 601,-859 513,-1988 -227,-2587 -743,-602 -1874,-449 -2588,328 -428,-400 -840,-816 -1237,-1247 793,-699 968,-1831 378,-2586 -593,-759 -1742,-860 -2615,-250 -250,-371 -490,-751 -718,-1137 934,-516 1348,-1595 926,-2462 -425,-870 -1538,-1207 -2523,-781 -217,-543 -414,-1096 -591,-1658 1035,-287 1688,-1250 1470,-2194 -218,-945 -1228,-1524 -2285,-1328 -87,-577 -155,-1160 -199,-1749 1072,-48 1926,-839 1926,-1808 0,-969 -854,-1760 -1927,-1807 34,-450 81,-897 140,-1340 1059,176 2058,-420 2259,-1368 201,-947 -468,-1897 -1506,-2167 167,-565 355,-1122 562,-1668l2 1c122,49 245,87 368,114l6 2c13,3 26,5 39,8 3,0 6,1 9,2 12,2 24,4 37,6l11 2c12,2 24,4 35,6 5,1 9,1 13,2 11,2 23,3 35,5l12 1c12,2 23,3 35,4l13 2c11,1 22,2 33,3l15 1c11,1 21,2 32,3l15 1c11,0 22,1 32,1l16 1c10,0 21,1 31,1l16 0c11,0 21,0 32,0 5,0 10,0 15,0 10,0 20,0 31,0l17 -1c10,0 19,0 29,-1l18 -1c9,0 19,-1 29,-1l17 -2c10,0 20,-1 30,-2 5,0 10,-1 15,-1 10,-1 20,-2 31,-4 5,0 10,-1 16,-2 10,-1 19,-2 29,-3 5,-1 11,-2 17,-3 10,-1 19,-2 29,-4 5,-1 10,-2 15,-2 10,-2 20,-4 30,-6 5,-1 10,-2 16,-2 9,-2 19,-4 29,-6 5,-1 10,-2 16,-4 9,-2 19,-4 28,-6 6,-1 11,-2 16,-4 10,-2 19,-4 29,-6 5,-2 9,-3 14,-4 10,-3 20,-5 30,-8 4,-1 8,-2 12,-4 10,-3 21,-6 31,-9 3,-1 5,-1 8,-2 12,-4 23,-7 35,-11l4 -2c40,-13 79,-27 117,-43l4 -1c11,-5 21,-9 32,-14 3,-1 6,-2 9,-4 9,-4 18,-8 27,-12 5,-2 10,-4 14,-6 8,-4 16,-7 23,-11 6,-3 12,-6 18,-9 7,-3 14,-7 22,-11 6,-3 11,-6 17,-9 8,-3 15,-7 22,-11 6,-4 12,-7 17,-10 8,-4 15,-8 22,-12 6,-3 11,-7 17,-10 7,-4 13,-8 20,-12 6,-4 12,-7 18,-11 7,-4 13,-8 20,-13 6,-3 11,-7 17,-11 7,-4 13,-9 19,-13 6,-4 12,-8 18,-12 6,-4 13,-9 19,-13 5,-4 11,-8 17,-13 6,-4 12,-9 18,-13 6,-5 12,-9 18,-14 5,-4 11,-9 17,-13 5,-5 11,-9 17,-14 6,-5 11,-9 17,-14 6,-5 11,-10 17,-14 5,-5 11,-10 17,-15 5,-5 10,-10 16,-15 5,-5 11,-10 16,-15 6,-5 11,-10 16,-15 6,-5 11,-10 16,-15 5,-6 11,-11 16,-16 5,-5 10,-11 15,-16 5,-5 11,-11 16,-17 5,-5 10,-10 14,-15 5,-6 10,-11 15,-17 5,-5 10,-11 15,-17 5,-5 9,-11 14,-16 5,-6 10,-12 15,-17 4,-6 9,-12 13,-18 5,-6 10,-11 14,-17 5,-6 10,-13 14,-19 4,-5 9,-11 13,-17 4,-6 9,-12 13,-18 5,-6 9,-13 13,-19 4,-6 8,-12 12,-18 5,-6 9,-13 13,-19 4,-6 8,-13 12,-19 4,-6 8,-13 12,-19 4,-7 8,-14 12,-20 4,-7 7,-13 11,-19 4,-7 8,-14 12,-22 3,-6 7,-12 10,-18 4,-6 7,-13 11,-20 3,-7 7,-14 10,-21l0 0c7,-13 14,-27 20,-41l0 0c3,-5 5,-10 7,-16 4,-8 8,-17 12,-25 2,-6 5,-13 8,-19 3,-8 6,-15 9,-23 3,-7 5,-13 8,-20 3,-7 6,-15 8,-23 3,-6 5,-13 8,-20 2,-7 5,-15 8,-22 2,-7 4,-14 6,-21 3,-7 5,-15 7,-22 2,-7 4,-14 6,-21 3,-7 5,-15 7,-22 2,-7 4,-14 5,-21 2,-7 4,-15 6,-22 2,-7 4,-14 5,-21 2,-8 4,-15 5,-23 2,-7 3,-14 5,-21 1,-7 3,-15 4,-22 2,-8 3,-15 4,-22 1,-7 3,-15 4,-22 1,-7 2,-15 3,-22 1,-7 2,-14 3,-22 1,-7 2,-14 3,-22 1,-7 2,-14 3,-21 0,-8 1,-15 2,-23 1,-7 1,-14 2,-22 0,-7 1,-14 1,-22 1,-7 1,-14 2,-21 0,-8 0,-16 1,-23 0,-7 0,-14 1,-21 0,-8 0,-15 0,-23 0,-7 0,-14 0,-22 0,-7 0,-15 0,-22 0,-7 0,-14 0,-21 -1,-8 -1,-16 -1,-23 0,-7 -1,-14 -1,-21 0,-8 -1,-16 -1,-23 -1,-7 -1,-14 -2,-21 0,-8 -1,-16 -2,-24 0,-6 -1,-13 -1,-19 -1,-8 -2,-17 -3,-25 -1,-6 -2,-12 -2,-19 -1,-8 -2,-16 -4,-25 0,-5 -1,-11 -2,-17 -2,-9 -3,-18 -4,-27 -1,-4 -2,-9 -3,-14 -2,-10 -3,-20 -5,-30 -1,-3 -2,-6 -2,-10 -2,-11 -5,-22 -7,-33l-1 -5c-15,-68 -34,-136 -57,-203l-1 -4c-5,-12 -9,-25 -14,-37l-1 -4c-5,-13 -9,-25 -14,-37l-2 -5c-5,-11 -9,-22 -14,-34l-3 -8c-5,-11 -10,-21 -15,-32l-3 -9c-5,-11 -10,-21 -15,-32l-4 -8c-5,-11 -11,-22 -16,-32l-4 -9c-6,-11 -11,-21 -17,-32l-4 -8c-6,-10 -11,-21 -17,-31l-5 -9c-6,-10 -12,-20 -18,-31l-5 -8c-6,-10 -13,-21 -19,-31l-5 -8c-6,-10 -13,-20 -20,-31l-4 -7c-7,-10 -14,-21 -21,-31l-5 -6c-7,-11 -14,-22 -22,-32l-4 -6c-8,-10 -15,-21 -23,-31l-4 -5c-8,-11 -17,-22 -25,-33l-2 -2c-9,-11 -18,-23 -27,-34l-2 -2c-9,-11 -19,-23 -28,-34l-1 0c-171,-199 -384,-371 -633,-504l-1 -1c290,-510 599,-1009 925,-1494 871,603 2014,500 2605,-256 587,-753 416,-1879 -369,-2579 396,-430 809,-846 1236,-1246 714,767 1838,915 2577,316 736,-595 827,-1716 236,-2573 482,-329 976,-642 1482,-936 528,892 1579,1280 2427,866 843,-411 1186,-1468 819,-2429 542,-211 1093,-404 1654,-576 322,972 1250,1572 2161,1362 904,-209 1472,-1143 1348,-2148 574,-83 1154,-145 1740,-186 112,1001 873,1775 1796,1775 917,0 1674,-763 1794,-1754z"/><circle class="fil0 str0" cx="25000" cy="25000" r="6275"/><circle class="fil0 str0" cx="25000" cy="25000" r="9299"/><circle class="fil0 str0" cx="25000" cy="25000" r="4500"/><rect class="fil1" x="24383" y="20588" width="1229" height="570"/><rect class="fil1" x="24383" y="28808" width="1229" height="570"/><rect class="fil1" transform="matrix(5.00028E-14 -1.888 1.888 5.00028E-14 20602.6 25597.1)" width="651" height="302"/><rect class="fil1" transform="matrix(5.00028E-14 -1.888 1.888 5.00028E-14 28822.6 25597.1)" width="651" height="302"/><rect class="fil1" transform="matrix(1.63505 -0.943999 0.943999 1.63505 22268.1 21483.7)" width="651" height="302"/><rect class="fil1" transform="matrix(1.63505 -0.943999 0.943999 1.63505 26378.1 28602.4)" width="651" height="302"/><rect class="fil1" transform="matrix(0.943999 -1.63505 1.63505 0.943999 20884.2 23317.3)" width="651" height="302"/><rect class="fil1" transform="matrix(0.943999 -1.63505 1.63505 0.943999 28003 27427.3)" width="651" height="302"/><rect class="fil1" transform="matrix(-0.943999 -1.63505 1.63505 -0.943999 21498.7 27712.4)" width="651" height="302"/><rect class="fil1" transform="matrix(-0.943999 -1.63505 1.63505 -0.943999 28617.4 23602.4)" width="651" height="302"/><rect class="fil1" transform="matrix(-1.63505 -0.943999 0.943999 -1.63505 23332.3 29096.2)" width="651" height="302"/><rect class="fil1" transform="matrix(-1.63505 -0.943999 0.943999 -1.63505 27442.3 21977.5)" width="651" height="302"/><path class="fil0 str1" d="M26644 4785c774,55 1535,152 2283,289 -122,861 337,1670 1103,1871 766,201 1572,-277 1898,-1087 729,251 1439,540 2128,866 -347,802 -115,1704 573,2095 687,390 1591,134 2119,-565 635,428 1245,889 1827,1381 -544,687 -557,1617 5,2170 563,553 1504,537 2196,-5 502,573 971,1174 1407,1800 -710,523 -967,1420 -568,2099 399,681 1317,905 2130,554 333,680 630,1380 886,2099 -826,322 -1313,1125 -1105,1886 208,759 1037,1211 1915,1079 141,738 243,1490 302,2254 -882,100 -1562,752 -1560,1539 1,787 684,1435 1566,1532 -56,764 -155,1516 -294,2255 -880,-131 -1709,325 -1914,1087 -205,762 286,1564 1115,1882 -254,720 -548,1421 -879,2101 -815,-351 -1736,-123 -2133,561 -397,682 -134,1580 580,2100 -434,627 -901,1229 -1401,1804 -695,-543 -1640,-557 -2202,0 -561,556 -543,1489 7,2173 -580,495 -1189,958 -1823,1388 -529,-702 -1438,-957 -2126,-563 -688,395 -915,1300 -562,2102 -688,329 -1397,621 -2125,873 -327,-813 -1139,-1292 -1907,-1087 -766,205 -1223,1019 -1094,1883 -747,139 -1508,238 -2281,296 -107,-866 -763,-1531 -1556,-1529 -792,1 -1445,668 -1549,1532 -773,-57 -1535,-155 -2282,-293 123,-862 -337,-1672 -1103,-1873 -765,-201 -1570,275 -1897,1083 -728,-252 -1438,-543 -2126,-870 342,-800 110,-1698 -576,-2087 -684,-388 -1582,-137 -2111,553 -634,-428 -1244,-890 -1825,-1383 535,-685 543,-1607 -16,-2156 -557,-549 -1488,-538 -2178,-9 -501,-574 -969,-1175 -1403,-1801 693,-526 942,-1412 547,-2085 -395,-673 -1297,-900 -2103,-566 -332,-679 -628,-1379 -884,-2098 809,-330 1282,-1123 1076,-1874 -205,-750 -1016,-1200 -1880,-1084 -141,-738 -243,-1490 -301,-2254 864,-114 1526,-758 1524,-1534 -1,-776 -665,-1417 -1529,-1528 57,-764 156,-1516 295,-2254 865,112 1674,-342 1876,-1093 202,-751 -272,-1541 -1080,-1868 254,-719 547,-1420 878,-2101 807,330 1707,99 2099,-575 391,-672 141,-1556 -551,-2078 432,-628 899,-1230 1398,-1805 693,523 1621,529 2176,-21 554,-550 544,-1467 12,-2149 579,-495 1187,-959 1821,-1389 531,685 1428,930 2109,540 682,-391 911,-1284 571,-2081 688,-329 1396,-622 2124,-875 332,802 1137,1271 1899,1068 761,-204 1217,-1010 1096,-1867 746,-141 1508,-242 2281,-300 110,860 765,1519 1554,1518 790,-2 1442,-665 1548,-1526z"/><path class="fil0 str1" d="M26458 7441c682,48 1354,132 2013,251 -107,749 299,1452 974,1626 676,175 1386,-241 1674,-945 643,218 1269,469 1877,752 -305,698 -101,1482 506,1821 607,339 1404,117 1869,-491 561,371 1099,772 1613,1200 -481,597 -491,1406 5,1886 496,481 1327,467 1937,-4 442,498 857,1020 1241,1564 -625,455 -852,1236 -499,1826 352,591 1162,786 1878,481 294,591 556,1199 783,1824 -729,281 -1158,980 -974,1641 184,660 915,1053 1689,937 126,642 216,1296 268,1960 -778,88 -1377,654 -1375,1339 1,684 604,1247 1382,1331 -50,665 -136,1319 -259,1961 -776,-113 -1507,283 -1687,946 -181,662 253,1360 984,1636 -224,626 -482,1236 -774,1828 -719,-305 -1531,-107 -1882,488 -349,593 -117,1373 513,1825 -382,546 -794,1070 -1234,1569 -614,-472 -1448,-483 -1943,1 -494,484 -479,1295 7,1890 -511,430 -1048,833 -1607,1207 -467,-611 -1269,-832 -1876,-489 -606,343 -807,1131 -494,1828 -607,286 -1232,540 -1874,760 -289,-707 -1005,-1123 -1683,-945 -675,178 -1078,887 -964,1637 -659,122 -1330,208 -2012,258 -94,-752 -674,-1330 -1373,-1329 -698,2 -1274,582 -1366,1333 -682,-49 -1353,-134 -2012,-254 108,-750 -298,-1454 -974,-1629 -675,-174 -1385,241 -1673,943 -642,-219 -1268,-471 -1875,-756 301,-696 96,-1476 -509,-1815 -604,-337 -1396,-118 -1862,482 -560,-372 -1098,-773 -1610,-1202 471,-596 478,-1397 -15,-1875 -492,-477 -1313,-466 -1922,-7 -441,-498 -855,-1021 -1238,-1566 611,-457 830,-1228 481,-1813 -348,-584 -1144,-781 -1855,-491 -293,-590 -554,-1199 -780,-1824 713,-287 1130,-977 948,-1630 -181,-652 -896,-1043 -1659,-942 -125,-642 -215,-1295 -267,-1959 763,-100 1346,-660 1344,-1335 -1,-675 -587,-1232 -1349,-1328 50,-664 136,-1318 259,-1960 763,97 1477,-297 1654,-950 178,-653 -241,-1340 -953,-1624 223,-626 482,-1236 773,-1828 712,287 1506,86 1852,-500 344,-585 123,-1353 -488,-1807 382,-546 793,-1070 1233,-1570 611,455 1430,460 1919,-19 488,-478 479,-1275 9,-1868 512,-431 1047,-835 1606,-1209 469,596 1261,809 1861,469 601,-340 803,-1116 503,-1809 606,-286 1231,-541 1872,-762 293,697 1004,1105 1676,928 671,-177 1073,-878 966,-1624 658,-122 1329,-210 2011,-261 98,748 676,1321 1372,1319 697,-1 1271,-578 1365,-1327z"/><path class="fil0 str1" d="M26291 9895c593,41 1176,114 1749,216 -93,645 259,1251 846,1401 587,151 1204,-207 1454,-814 559,188 1103,404 1631,648 -266,601 -88,1277 439,1569 527,292 1219,100 1623,-423 487,320 955,665 1401,1034 -417,514 -427,1211 4,1625 431,414 1152,401 1683,-4 384,429 744,879 1078,1347 -544,392 -741,1065 -435,1573 306,510 1009,677 1632,415 255,508 483,1033 679,1571 -633,242 -1006,844 -846,1413 159,569 794,907 1467,808 108,553 187,1116 232,1688 -676,75 -1197,563 -1196,1153 2,589 525,1075 1201,1147 -43,572 -119,1136 -225,1689 -674,-97 -1310,244 -1467,815 -157,570 220,1171 855,1409 -195,539 -420,1065 -673,1574 -625,-262 -1331,-92 -1635,420 -304,511 -103,1184 444,1573 -332,470 -690,921 -1072,1352 -533,-407 -1258,-417 -1688,0 -430,417 -416,1115 6,1628 -445,370 -911,718 -1397,1039 -406,-525 -1102,-716 -1630,-420 -527,295 -701,973 -430,1574 -527,246 -1070,465 -1628,654 -251,-609 -873,-967 -1461,-813 -587,153 -937,763 -838,1410 -573,104 -1156,179 -1748,222 -82,-648 -585,-1147 -1193,-1145 -607,1 -1107,500 -1187,1147 -592,-42 -1176,-115 -1748,-218 94,-646 -258,-1253 -845,-1403 -587,-151 -1204,206 -1454,811 -558,-188 -1102,-406 -1629,-651 262,-599 84,-1272 -442,-1563 -524,-291 -1212,-102 -1617,415 -486,-321 -953,-666 -1399,-1036 410,-513 416,-1203 -12,-1615 -427,-410 -1140,-402 -1669,-6 -384,-430 -743,-880 -1076,-1349 532,-393 722,-1058 419,-1561 -302,-504 -994,-674 -1611,-424 -255,-508 -481,-1033 -678,-1571 620,-247 982,-842 825,-1404 -158,-562 -779,-898 -1441,-812 -109,-552 -186,-1115 -231,-1688 662,-85 1169,-568 1168,-1149 -2,-581 -510,-1061 -1172,-1144 43,-572 119,-1136 225,-1689 664,84 1284,-255 1438,-818 155,-562 -209,-1154 -828,-1399 195,-539 419,-1064 673,-1574 618,247 1308,74 1608,-431 300,-504 108,-1165 -422,-1556 331,-470 689,-922 1071,-1353 531,392 1242,397 1667,-15 425,-412 417,-1099 9,-1610 444,-371 910,-719 1395,-1041 408,513 1095,697 1617,404 522,-293 698,-961 437,-1558 527,-247 1070,-466 1627,-656 255,600 871,952 1455,799 584,-152 933,-756 840,-1398 572,-106 1155,-181 1748,-225 85,644 586,1138 1191,1136 605,-1 1105,-498 1186,-1143z"/><path class="fil0 str1" d="M26072 12372c507,31 1006,90 1496,173 -77,541 226,1046 728,1170 502,123 1029,-179 1241,-688 478,155 944,334 1396,536 -225,504 -70,1069 381,1311 452,243 1043,79 1387,-360 417,265 819,552 1201,859 -355,433 -360,1016 9,1361 370,345 987,332 1439,-10 330,357 640,732 926,1124 -463,330 -629,894 -366,1318 264,425 866,563 1397,341 220,424 416,863 586,1312 -540,205 -857,711 -719,1187 138,476 683,756 1258,670 94,463 163,934 204,1413 -578,66 -1022,477 -1018,970 3,494 452,898 1030,956 -35,479 -98,951 -187,1415 -576,-79 -1119,210 -1251,688 -132,478 192,980 736,1177 -165,452 -355,893 -570,1320 -535,-217 -1138,-71 -1397,359 -258,429 -83,991 386,1315 -282,395 -587,774 -913,1136 -457,-338 -1076,-344 -1443,8 -366,350 -352,935 11,1362 -379,312 -777,605 -1191,876 -349,-438 -945,-595 -1395,-345 -449,249 -596,818 -362,1320 -450,208 -914,394 -1390,554 -217,-508 -750,-806 -1252,-675 -502,131 -799,643 -712,1184 -489,90 -988,155 -1494,194 -72,-543 -504,-958 -1024,-954 -518,4 -945,424 -1010,966 -507,-33 -1006,-92 -1496,-176 78,-541 -225,-1048 -728,-1171 -502,-124 -1028,178 -1240,685 -478,-155 -943,-335 -1395,-538 222,-503 67,-1065 -383,-1307 -449,-241 -1037,-81 -1382,354 -417,-266 -817,-554 -1199,-862 348,-431 351,-1009 -16,-1352 -367,-342 -977,-332 -1428,2 -329,-358 -638,-733 -924,-1125 453,-332 614,-889 353,-1309 -261,-421 -852,-560 -1379,-348 -220,-425 -415,-863 -585,-1313 529,-209 837,-708 700,-1179 -136,-469 -669,-749 -1235,-673 -94,-463 -163,-934 -203,-1413 566,-74 998,-480 995,-967 -4,-486 -440,-886 -1006,-953 35,-479 97,-951 187,-1415 567,68 1096,-219 1226,-691 130,-471 -183,-965 -713,-1168 165,-452 355,-893 570,-1320 529,204 1119,56 1374,-368 254,-423 88,-976 -367,-1302 282,-394 586,-774 911,-1136 456,326 1064,327 1426,-20 361,-347 352,-922 2,-1348 378,-312 775,-606 1189,-877 350,427 939,578 1384,331 445,-247 593,-808 368,-1306 450,-209 913,-395 1389,-557 220,502 749,794 1247,664 499,-130 796,-637 714,-1175 488,-90 987,-156 1493,-195 75,538 506,950 1023,946 517,-3 943,-421 1010,-961z"/></g>
  <!-- <text x="0" y="50015" fill="#000000" font-size="5px" font-weight="bold" font-family="'Helvetica Neue', Helvetica, Arial-Unicode, Arial, Sans-serif">Created by Oleksandr Panasovskyi</text><text x="0" y="50020" fill="#000000" font-size="5px" font-weight="bold" font-family="'Helvetica Neue', Helvetica, Arial-Unicode, Arial, Sans-serif">from the Noun Project</text> -->
  </svg>