<svg xmlns:sketch="http://www.bohemiancoding.com/sketch/ns" xmlns="http://www.w3.org/2000/svg" xmlns:xlink="http://www.w3.org/1999/xlink" version="1.1" x="0px" y="0px" viewBox="-543 297 100 125" enable-background="new -543 297 100 100" xml:space="preserve"><title>chain</title><desc>Created with Sketch.</desc><g><path d="M-513.7,350c-4.7-0.1-9,1.7-12.4,5l-0.1,0.1c-6.7,6.7-6.8,17.7-0.1,24.5c3.3,3.3,7.6,5.2,12.3,5.2c4.6,0.1,9-1.7,12.4-5   l0.1-0.1c6.7-6.7,6.8-17.7,0.1-24.5C-504.7,351.9-509,350-513.7,350z M-504.2,377l-0.1,0.1c-2.6,2.5-6,3.9-9.7,3.9   c-3.6,0-7.1-1.5-9.6-4.1c-5.2-5.3-5.2-13.9,0.1-19.2l0.1-0.1c2.6-2.5,6-3.9,9.7-3.9c3.6,0,7,1.5,9.6,4.1   C-498.9,363.2-499,371.8-504.2,377z"/><path d="M-459.7,314.4c-6.7-6.9-17.8-7-24.6-0.3l-0.1,0.1c-6.7,6.7-6.8,17.7-0.1,24.5c6.7,6.9,17.8,7,24.6,0.3l0.1-0.1   C-453.1,332.2-453.1,321.2-459.7,314.4z M-462.5,336.2l-0.1,0.1c-5.4,5.2-14,5.1-19.3-0.2c-5.2-5.3-5.2-13.9,0.1-19.2l0.1-0.1   c5.4-5.3,14-5.2,19.3,0.2C-457.2,322.4-457.3,331-462.5,336.2z"/><path d="M-454.2,310.5c-0.2-0.3-0.5-0.5-0.7-0.8c-0.3-0.3-0.6-0.5-0.8-0.7c-9.4-8.8-24.1-8.7-33.4,0.4c-2.2,2.2-3.9,4.7-5.1,7.3   l-0.2,0.1l-0.2,0.6l-0.2,0.4c-2.4,7-5.5,12.2-9.6,16.4l-0.3,0.3c-5,4.9-11.2,8.5-17.2,10l-0.3,0.1l-0.6,0.3l-0.5,0.2l-0.1,0.1   c-2.8,1.2-5.4,2.8-7.6,5c-9.3,9.3-9.7,23.9-1.1,33.4c0.2,0.2,0.4,0.5,0.7,0.8c0.3,0.3,0.5,0.5,0.8,0.7c9.4,8.9,24.1,8.7,33.4-0.4   c2-2,3.5-4.1,4.7-6.4l0.2-0.1l0.2-0.6l0.2-0.5c0.4-0.8,0.7-1.8,1-2.7c2.6-7.1,4.7-11.2,8.4-14.8l0.2-0.2c4.2-4.1,9.4-7.1,16.5-9.4   c0.1,0,0.3-0.1,0.7-0.2c0,0,1.5-0.5,1.5-0.5l0.6-0.2l0.1-0.1c2.8-1.2,5.4-2.8,7.6-5c0.2-0.2,0.2-0.2,0.2-0.2   C-446,334.6-445.6,320-454.2,310.5z M-457.7,341c-2.1,2.1-4.4,3.6-7,4.6l-0.5,0.2l-0.9,0.3c-0.3,0.1-0.5,0.2-0.6,0.2   c-7.6,2.5-13.4,5.7-18,10.3l-0.2,0.2c-4.1,4.1-6.5,8.6-9.3,16.3c-0.3,0.9-0.6,1.7-0.9,2.5l0,0.1l0,0l-0.2,0.5c-1,2.1-2.4,4.1-4,5.7   c-8,7.8-20.4,7.9-28.4,0.4c-0.2-0.2-0.4-0.4-0.6-0.5c-0.2-0.2-0.4-0.4-0.5-0.6c-7.3-8.1-7-20.4,0.7-28.1c2.1-2.1,4.4-3.6,7-4.6   l0.5-0.2l0.1-0.1c6.6-1.7,13.3-5.6,18.7-10.9l0.3-0.3c4.6-4.6,7.9-10.2,10.5-17.7l0,0l0.2-0.5c1-2.4,2.5-4.6,4.4-6.5   c8-7.8,20.4-7.9,28.4-0.4c0.2,0.2,0.4,0.4,0.6,0.6c0.2,0.2,0.3,0.4,0.5,0.6C-449.8,321-450.1,333.4-457.7,341z"/></g>
<!-- <text x="-543" y="412" fill="#000000" font-size="5px" font-weight="bold" font-family="'Helvetica Neue', Helvetica, Arial-Unicode, Arial, Sans-serif">Created by Johannes S</text><text x="-543" y="417" fill="#000000" font-size="5px" font-weight="bold" font-family="'Helvetica Neue', Helvetica, Arial-Unicode, Arial, Sans-serif">from the Noun Project</text> -->
</svg>