<svg xmlns="http://www.w3.org/2000/svg" xmlns:xlink="http://www.w3.org/1999/xlink" version="1.1" x="0px" y="0px" viewBox="0 0 100 125" enable-background="new 0 0 100 100" xml:space="preserve"><path d="M45.414,70.263c-1.558,0-2.821,1.263-2.821,2.821s1.264,2.821,2.821,2.821c1.559,0,2.822-1.263,2.822-2.821  S46.972,70.263,45.414,70.263z M45.414,74.155c-0.591,0-1.071-0.48-1.071-1.071s0.48-1.071,1.071-1.071s1.072,0.48,1.072,1.071  S46.004,74.155,45.414,74.155z"/><path d="M41.633,74.952l-0.224-0.541H31.134l-0.026,0.848c-0.142,4.58,4.197,8.794,4.382,8.972l0.03,0.027  c3.588,3.133,6.115,3.791,7.603,3.791c0,0,0,0,0.001,0c1.208,0,1.853-0.418,1.969-0.502l0.365-0.262V77.177l-0.814-0.056  C43.321,77.029,42.14,76.179,41.633,74.952z M43.708,86.242c-0.149,0.032-0.344,0.057-0.584,0.057h-0.001  c-0.971,0-3.097-0.435-6.434-3.344c-0.229-0.225-3.398-3.404-3.794-6.794h7.382c0.725,1.302,1.985,2.247,3.431,2.583V86.242z"/><path d="M34.039,18.097c1.559,0,2.822-1.263,2.822-2.822c0-1.558-1.264-2.821-2.822-2.821c-1.558,0-2.821,1.263-2.821,2.821  C31.217,16.834,32.481,18.097,34.039,18.097z M34.039,14.204c0.591,0,1.072,0.481,1.072,1.071c0,0.591-0.481,1.072-1.072,1.072  s-1.071-0.481-1.071-1.072C32.967,14.685,33.448,14.204,34.039,14.204z"/><path d="M79.603,24.299c-0.745-1.333-1.67-2.528-2.74-3.568c-0.533-2.397-3.312-8.362-17.594-12.479l-0.08-0.019  c-1.572-0.298-5.067,0.113-7.043,3.809c-1.816,3.396-2.796,6.773-3.117,7.992c-2.848,1.001-5.524,1.924-7.363,2.351v-0.001  l-0.059,0.015c-0.656,0.15-1.203,0.235-1.609,0.235c-0.02,0-0.039,0-0.057,0c0.044-0.09,0.108-0.207,0.201-0.352  c0.631-0.985,0.803-1.855,0.516-2.593c0.843-1.263,1.336-2.78,1.336-4.413c0-4.393-3.562-7.954-7.955-7.954  c-4.393,0-7.954,3.561-7.954,7.954c0,1.525,0.43,2.949,1.173,4.159c-0.254,1.336-1.031,5.29-1.875,8.198  c-0.612,2.108-0.626,5.792,0.271,9.707c-0.123-0.018-0.249-0.027-0.376-0.027c-0.327,0-0.648,0.061-0.955,0.18l-3.478,1.358  c-1.349,0.526-2.017,2.052-1.49,3.399l0.934,2.392c0.396,1.016,1.356,1.671,2.446,1.671c0.326,0,0.647-0.061,0.954-0.18l3.478-1.358  c0.393-0.153,0.733-0.395,1.006-0.7c0.291,0.53,0.603,1.05,0.938,1.555l0.355,0.533l9.046-2.625  c0.255-0.066,2.068-0.597,3.037-2.366c0.574-1.049,0.732-2.294,0.476-3.712c2.868,0.636,9.515,1.95,15.443,1.95c0,0,0,0,0.001,0  c0.185,0,0.366-0.002,0.548-0.005l-6.928,16.458c-0.321,0.725-0.655,1.42-1,2.09c-0.402-0.125-0.811-0.236-1.227-0.329  c-0.419,1.335-1.665,2.297-3.128,2.297c-0.021,0-0.043,0-0.065,0c-1.491-0.029-2.729-1.049-3.103-2.419  c-2.044,0.371-3.952,1.137-5.646,2.214c0.655,1.259,0.438,2.847-0.636,3.88c-0.637,0.612-1.455,0.916-2.272,0.916  c-0.563,0-1.127-0.145-1.629-0.431c-1.111,1.604-1.933,3.425-2.391,5.389h-5.405v5.585l3.241,3.601  c2.065,6.96,8.64,10.833,8.912,10.991c3.431,2.041,6.106,3.034,8.178,3.034h0.001c1.372,0,2.475-0.441,3.277-1.311  c0.743-0.805,1.128-1.877,1.314-2.989c1.572-0.42,3.052-1.071,4.394-1.925c-0.655-1.259-0.438-2.847,0.636-3.88  c0.636-0.612,1.455-0.916,2.272-0.916c0.563,0,1.126,0.145,1.629,0.432c1.143-1.65,1.981-3.528,2.433-5.557  c-1.355-0.426-2.326-1.702-2.297-3.193c0.028-1.492,1.049-2.729,2.419-3.103c-0.371-2.044-1.137-3.953-2.215-5.646  c-0.474,0.246-0.995,0.37-1.516,0.37c-0.472,0-0.943-0.102-1.379-0.304l13.69-27.25c3.393-0.877,5.245-1.552,5.364-1.596  c0.171-0.063,4.198-1.598,5.489-5.109C81.156,28.735,80.877,26.581,79.603,24.299z M53.688,12.867  c1.774-3.318,4.784-2.974,5.143-2.92c8.583,2.481,12.596,5.58,14.451,7.744c0.225,0.262,0.423,0.516,0.599,0.762  c-2.661-1.579-5.835-2.442-9.254-2.442c-2.134,0-4.345,0.334-6.57,0.994c-2.261,0.67-4.651,1.493-7.004,2.318  C51.524,17.775,52.386,15.303,53.688,12.867z M34.039,9.071c3.421,0,6.205,2.783,6.205,6.204c0,3.421-2.784,6.205-6.205,6.205  s-6.204-2.783-6.204-6.205C27.834,11.854,30.618,9.071,34.039,9.071z M27.013,42.68c-0.094,0.214-0.266,0.379-0.483,0.464  l-3.478,1.357c-0.103,0.04-0.21,0.061-0.317,0.061c-0.363,0-0.684-0.219-0.816-0.557l-0.934-2.392  c-0.176-0.45,0.048-0.958,0.497-1.134l3.478-1.357c0.103-0.04,0.21-0.061,0.318-0.061c0.363,0,0.683,0.219,0.815,0.557l0.934,2.393  C27.112,42.228,27.107,42.466,27.013,42.68z M40.023,40.312c-0.637,1.185-1.938,1.526-1.945,1.528l-7.855,2.279  c-3.424-5.536-4.062-12.89-3.159-16c0.662-2.28,1.27-5.111,1.639-6.947c1.411,1.278,3.283,2.057,5.337,2.057  c1.574,0,3.041-0.459,4.276-1.249c-0.167,0.381-0.291,0.857-0.162,1.316l-5.77,1.502l1.397,12.276l6.397,0.139  C40.508,38.465,40.458,39.506,40.023,40.312z M33.128,66.182c0.291,0.052,0.587,0.078,0.885,0.078c1.306,0,2.544-0.499,3.485-1.404  c1.175-1.13,1.703-2.753,1.492-4.313c0.839-0.432,1.714-0.775,2.619-1.028c0.905,1.29,2.396,2.123,4.025,2.154  c0.033,0.001,0.066,0.001,0.1,0.001c0.953,0,1.854-0.265,2.623-0.734c-1.869,2.853-4.009,5.038-6.398,6.516  c-2.911,1.8-5.437,2.068-6.684,2.068c-0.476,0-0.749-0.04-0.749-0.04l-0.068-0.011h-1.7c-0.227-0.262-0.479-0.501-0.757-0.713  C32.29,67.861,32.667,67.002,33.128,66.182z M57.268,66.712c0.23,0,0.461-0.017,0.689-0.048c0.431,0.837,0.774,1.711,1.027,2.615  c-1.291,0.906-2.124,2.396-2.155,4.026c-0.032,1.631,0.743,3.151,1.997,4.106c-0.288,0.895-0.665,1.754-1.128,2.574  c-0.291-0.052-0.586-0.078-0.884-0.078c-1.307,0-2.545,0.499-3.486,1.405c-1.175,1.13-1.702,2.752-1.492,4.312  c-0.698,0.36-1.424,0.654-2.17,0.891c0.011-0.913-0.057-1.765-0.108-2.419c-0.416-5.228,2.277-11.334,2.421-11.656l3.125-6.22  C55.77,66.54,56.504,66.712,57.268,66.712z M50.407,71.673l-0.014,0.028c-0.124,0.272-3.043,6.732-2.58,12.536  c0.118,1.484,0.364,4.574-0.9,5.943c-0.465,0.503-1.116,0.748-1.992,0.748c-1.724,0-4.175-0.938-7.293-2.794  c-0.063-0.036-6.364-3.746-8.172-10.155l-0.055-0.196l-3.062-3.401v-3.164h7.991c0.144,0.018,0.471,0.051,0.946,0.051  c1.433,0,4.325-0.303,7.604-2.33c3.957-2.446,7.257-6.607,9.816-12.383l7.256-17.236c0.897-0.068,1.729-0.173,2.485-0.317  c1.826-0.35,3.463-0.703,4.907-1.043L50.407,71.673z M78.793,30.092c-1.007,2.753-4.427,4.068-4.457,4.079  c-0.044,0.017-4.473,1.629-12.229,3.112c-1.304,0.249-2.864,0.375-4.64,0.375c-6.851,0-14.974-1.877-16.272-2.188l-0.022,0.016  l-5.826-0.126l-1.053-9.249l7.812-2.034v-0.001c2.117-0.495,5.049-1.526,8.298-2.67c2.721-0.958,5.536-1.949,8.15-2.724  c0.146-0.043,0.291-0.081,0.436-0.121l1.657,11.742l1.733-0.245l-1.681-11.903c1.332-0.261,2.646-0.395,3.928-0.395  c4.135,0,7.862,1.389,10.604,3.845c0.006,0.069,0.006,0.107,0.006,0.11l0.122,0.004c1.072,0.985,1.99,2.136,2.715,3.434  C79.087,26.965,79.328,28.626,78.793,30.092z"/><text x="0" y="115" fill="#000000" font-size="5px" font-weight="bold" font-family="'Helvetica Neue', Helvetica, Arial-Unicode, Arial, Sans-serif">Created by Anton Gajdosik</text><text x="0" y="120" fill="#000000" font-size="5px" font-weight="bold" font-family="'Helvetica Neue', Helvetica, Arial-Unicode, Arial, Sans-serif">from the Noun Project</text></svg>