<svg xmlns="http://www.w3.org/2000/svg" xmlns:xlink="http://www.w3.org/1999/xlink" xml:space="preserve" version="1.1" style="shape-rendering:geometricPrecision;text-rendering:geometricPrecision;image-rendering:optimizeQuality;" viewBox="0 0 50000 62500" x="0px" y="0px" fill-rule="evenodd" clip-rule="evenodd"><defs><style type="text/css">
   
    .str1 {stroke:white;stroke-width:864.44}
    .str0 {stroke:white;stroke-width:864.44}
    .fil0 {fill:none}
   
  </style></defs><g><g><path class="fil0 str0" d="M19836 29224c4974,2627 6473,3627 10996,3172 -2304,-1480 -7816,-3320 -10996,-3172z"/><path class="fil0 str1" d="M45682 32715c4259,4924 1576,10050 -4824,5960l-5540 -3335c-3008,-1489 -3089,-1057 -7865,-1017 -2005,16 -3099,-649 -4521,-1400 -1183,-625 -4716,-2848 -5955,-2739 -3289,288 -4254,1610 -7469,126 -3963,-1829 -6573,-4545 -7198,-8959 -156,-1098 -4,-2525 685,-3437 600,-791 2173,-1938 3022,-2349 1267,-614 2296,-200 3581,-921 1290,-723 1449,-1997 2080,-2822 244,-318 586,-580 934,-847 2947,-2254 5797,-751 8740,1005 2441,1456 3628,3229 4553,6566 430,1549 1178,1926 2666,2975 1110,782 2104,1427 3317,2173 4031,2480 10766,5521 13794,9021z"/><path class="fil0 str1" d="M32261 28619c882,535 2009,-542 909,-1109 -1622,-835 -9703,-5256 -10031,-5419 -1018,-508 -1869,501 -691,1192 2330,1367 7688,4188 9813,5336z"/><path class="fil0 str1" d="M11669 11833c2638,3078 9904,8139 18429,12659 12817,6796 18645,9989 17372,14223"/><path class="fil0 str1" d="M45888 39921c500,-3000 -11897,-8753 -18500,-12500 -8577,-4867 -16874,-8075 -21030,-11998"/></g></g>
  <!-- <text x="0" y="50015" fill="#000000" font-size="5px" font-weight="bold" font-family="'Helvetica Neue', Helvetica, Arial-Unicode, Arial, Sans-serif">Created by Oleksandr Panasovskyi</text><text x="0" y="50020" fill="#000000" font-size="5px" font-weight="bold" font-family="'Helvetica Neue', Helvetica, Arial-Unicode, Arial, Sans-serif">from the Noun Project</text> -->
  </svg>