<svg xmlns="http://www.w3.org/2000/svg" xmlns:xlink="http://www.w3.org/1999/xlink" version="1.1" x="0px" y="0px" viewBox="0 0 100 125" enable-background="new 0 0 100 100" xml:space="preserve"><path d="M60.361,60.611H39.639c-3.221,0-7.176-1.898-9.192-4.425l-6.406-7.993c-0.699-0.87-2.609-1.792-3.72-1.792H5v-7.011h15.321  c3.221,0,7.176,1.898,9.192,4.425l6.406,7.993c0.699,0.87,2.609,1.792,3.72,1.792h20.722c1.111,0,3.021-0.923,3.714-1.786  l6.412-8.004c2.016-2.521,5.971-4.42,9.192-4.42H95V46.4H79.679c-1.111,0-3.021,0.923-3.714,1.792l-6.412,7.999  C67.543,58.713,63.582,60.611,60.361,60.611"/>
<!-- <text x="0" y="115" fill="#000000" font-size="5px" font-weight="bold" font-family="'Helvetica Neue', Helvetica, Arial-Unicode, Arial, Sans-serif">Created by orlangiodo</text><text x="0" y="120" fill="#000000" font-size="5px" font-weight="bold" font-family="'Helvetica Neue', Helvetica, Arial-Unicode, Arial, Sans-serif">from the Noun Project</text> -->
</svg>