<svg xmlns="http://www.w3.org/2000/svg" xmlns:xlink="http://www.w3.org/1999/xlink" xml:space="preserve" version="1.1" style="shape-rendering:geometricPrecision;text-rendering:geometricPrecision;image-rendering:optimizeQuality;" viewBox="0 0 50000 62500" x="0px" y="0px" fill-rule="evenodd" clip-rule="evenodd"><defs><style type="text/css">
   
    .str0 {stroke:white;stroke-width:105.83}
    .fil0 {fill:white;fill-rule:nonzero}
   
  </style></defs><g><g><path class="fil0 str0" d="M26845 19749l15264 0c191,0 365,78 490,204 126,125 204,299 204,490l0 9115c0,191 -78,364 -204,490 -125,125 -299,203 -490,203l-15264 0c-191,0 -364,-78 -490,-203 -125,-126 -203,-299 -203,-490l0 -9115c0,-191 78,-365 203,-490 126,-126 299,-204 490,-204zm15264 353l-15264 0c-93,0 -179,38 -240,100 -62,62 -101,147 -101,241l0 9115c0,93 39,178 101,240 61,62 147,100 240,100l15264 0c94,0 179,-38 241,-100 62,-62 100,-147 100,-240l0 -9115c0,-94 -38,-179 -100,-241 -62,-62 -147,-100 -241,-100z"/><path class="fil0 str0" d="M42510 23475c234,-250 518,-453 837,-591 307,-134 646,-208 1000,-208 695,0 1324,282 1780,738 455,455 737,1084 737,1779 0,695 -282,1324 -737,1780 -456,455 -1085,737 -1780,737 -348,0 -681,-71 -984,-200 -313,-133 -595,-329 -828,-571l254 -244c200,208 442,376 712,491 259,110 545,171 846,171 598,0 1139,-242 1530,-634 392,-391 634,-932 634,-1530 0,-597 -242,-1138 -634,-1530 -391,-392 -932,-634 -1530,-634 -307,0 -598,63 -861,177 -274,119 -519,293 -720,508l-256 -239z"/><path class="fil0 str0" d="M10521 29136l-226 0c0,-2745 1,-5490 2,-8235l4621 0 -4290 8236 -107 -1zm127 -7882l-2 7085 3690 -7085 -3688 0z"/><path class="fil0 str0" d="M15941 20901l1854 0 -4377 8231 -1958 1c1458,-2744 2916,-5488 4375,-8232l106 0zm1267 353l-1161 0 -4001 7528 1159 -1 4003 -7527z"/><path class="fil0 str0" d="M18962 20901l1854 0 -4378 8231 -1957 1c1458,-2744 2916,-5488 4375,-8232l106 0zm1267 353l-1161 0 -4001 7528 1159 -1 4003 -7527z"/><path class="fil0 str0" d="M21972 20901l1854 0 -4377 8231 -1958 1c1459,-2744 2917,-5488 4375,-8232l106 0zm1267 353l-1161 0 -4001 7528 1160 -1 4002 -7527z"/><path class="fil0 str0" d="M24943 20902l226 0c-1,2745 -2,5490 -3,8235l-4620 0c1430,-2745 2859,-5490 4290,-8236l107 1zm-128 7882l2 -7085 -3690 7085 3688 0z"/><path class="fil0 str0" d="M7798 26764c-235,291 -533,527 -873,689 -328,157 -695,244 -1082,244 -695,0 -1324,-282 -1780,-737 -455,-455 -737,-1085 -737,-1780 0,-695 282,-1324 737,-1779 456,-456 1085,-737 1780,-737 383,0 747,86 1073,240 338,159 635,392 870,678l-271 223c-202,-245 -458,-445 -749,-583 -279,-132 -592,-206 -923,-206 -598,0 -1139,243 -1530,634 -392,392 -634,933 -634,1530 0,598 242,1139 634,1531 391,391 932,633 1530,633 333,0 649,-75 930,-209 294,-140 550,-343 752,-592l273 221z"/><path class="fil0 str0" d="M7485 26708l0 -5566c0,-131 63,-169 134,-210 5,-3 7,-3 8,-4l1377 -1138 1 0c39,-33 83,-48 129,-48 41,0 78,12 111,33 23,14 43,33 60,53 38,46 66,116 66,176l0 9993c0,57 -25,123 -61,169 -17,22 -38,41 -61,56 -34,23 -73,36 -115,36 -44,0 -87,-14 -126,-45l-1377 -1076c-1,-1 -4,-2 -10,-5 -71,-42 -136,-79 -136,-211l0 -2213zm353 -3093l0 5238 10 7 1170 915 0 -9540 -1166 964c-5,4 -10,8 -14,11l0 2405z"/><path class="fil0 str0" d="M5832 23688c418,0 797,170 1071,444 274,274 443,652 443,1071 0,418 -169,796 -443,1070 -274,274 -653,444 -1071,444 -418,0 -797,-170 -1071,-444 -274,-274 -443,-652 -443,-1070 0,-419 169,-797 443,-1071 274,-274 653,-444 1071,-444zm821 693c-210,-210 -500,-340 -821,-340 -321,0 -611,130 -821,340 -210,210 -340,501 -340,822 0,320 130,611 340,821 210,210 500,340 821,340 321,0 611,-130 821,-340 211,-210 341,-501 341,-821 0,-321 -130,-612 -341,-822z"/><path class="fil0 str0" d="M44403 23699c418,0 796,170 1070,444 274,274 444,652 444,1070 0,418 -170,797 -444,1071 -274,274 -652,443 -1070,443 -418,0 -797,-169 -1071,-443 -274,-274 -444,-653 -444,-1071 0,-418 170,-796 444,-1070 274,-274 653,-444 1071,-444zm821 693c-210,-210 -501,-340 -821,-340 -321,0 -611,130 -822,340 -210,210 -340,501 -340,821 0,321 130,611 340,822 211,210 501,340 822,340 320,0 611,-130 821,-340 210,-211 340,-501 340,-822 0,-320 -130,-611 -340,-821z"/></g></g>
  <!-- <text x="0" y="50015" fill="#000000" font-size="5px" font-weight="bold" font-family="'Helvetica Neue', Helvetica, Arial-Unicode, Arial, Sans-serif">Created by Oleksandr Panasovskyi</text><text x="0" y="50020" fill="#000000" font-size="5px" font-weight="bold" font-family="'Helvetica Neue', Helvetica, Arial-Unicode, Arial, Sans-serif">from the Noun Project</text> -->
  </svg>