<svg xmlns="http://www.w3.org/2000/svg" xmlns:xlink="http://www.w3.org/1999/xlink" version="1.1" x="0px" y="0px" viewBox="0 0 64 80" enable-background="new 0 0 64 64" xml:space="preserve"><g><g><path fill="#000000" d="M32,13.2c-1,0-1.8-0.7-1.9-1.7h-5.4v2.7c0,0.7,0.5,1.2,1.2,1.2h3.6c2,0,3.6,1.6,3.6,3.6V57h6.2V15.4v-3.9    h-5.4C33.8,12.5,33,13.2,32,13.2z"/><path fill="#000000" d="M24.7,8.2v2.7h5.4C30.2,10,31,9.3,32,9.3c1,0,1.8,0.7,1.9,1.6h5.4V8.2c0-0.7-0.5-1.2-1.2-1.2H25.9    C25.2,7,24.7,7.5,24.7,8.2z"/></g></g>
<!-- <text x="0" y="79" fill="#000000" font-size="5px" font-weight="bold" font-family="'Helvetica Neue', Helvetica, Arial-Unicode, Arial, Sans-serif">Created by Berkah Studio</text><text x="0" y="84" fill="#000000" font-size="5px" font-weight="bold" font-family="'Helvetica Neue', Helvetica, Arial-Unicode, Arial, Sans-serif">from the Noun Project</text> -->
</svg>