<svg xmlns="http://www.w3.org/2000/svg" xmlns:xlink="http://www.w3.org/1999/xlink" version="1.2" baseProfile="tiny" x="0px" y="0px" viewBox="0 0 128 160" overflow="visible" xml:space="preserve"><path fill="none" stroke="#000000" stroke-width="4" stroke-linecap="round" stroke-linejoin="round" stroke-miterlimit="10" d="  M25,33c-2.2,0-4-1.8-4-4s1.8-4,4-4s4,1.8,4,4S27.2,33,25,33z"/><path fill="none" stroke="#000000" stroke-width="4" stroke-linecap="round" stroke-linejoin="round" stroke-miterlimit="10" d="  M49,17c-2.2,0-4-1.8-4-4s1.8-4,4-4s4,1.8,4,4S51.2,17,49,17z"/><path fill="none" stroke="#000000" stroke-width="4" stroke-linecap="round" stroke-linejoin="round" stroke-miterlimit="10" d="  M49,24c-6.1,0-11-4.9-11-11S42.9,2,49,2s11,4.9,11,11S55.1,24,49,24z"/><path d="M55,107c-2.2,0-4-1.8-4-4s1.8-4,4-4s4,1.8,4,4S57.2,107,55,107z"/><path fill="none" stroke="#000000" stroke-width="4" stroke-linecap="round" stroke-linejoin="round" stroke-miterlimit="10" d="  M65.8,82.8c-1.7-0.8-3.5-1.5-5.4-1.8c0,0.2,0.1,0.4,0.1,0.7c0,2.5-2,4.5-4.5,4.5c-2.5,0-4.5-2-4.5-4.5c0-0.2,0-0.5,0.1-0.7  c-2.9,0.6-5.6,1.7-8,3.3c0.2,0.1,0.4,0.3,0.5,0.4c1.8,1.8,1.8,4.6,0,6.3c-1.8,1.8-4.6,1.8-6.3,0c-0.2-0.2-0.3-0.3-0.4-0.5  c-1,1.4-1.8,3-2.4,4.7"/><path fill="none" stroke="#000000" stroke-width="4" stroke-linecap="round" stroke-linejoin="round" stroke-miterlimit="10" d="  M59.4,121.3c0.7,0.8,1.1,1.8,1.1,3c0,0.2,0,0.5-0.1,0.7c2.9-0.6,5.6-1.7,8-3.3c-0.2-0.1-0.4-0.3-0.5-0.4c-1.8-1.8-1.8-4.6,0-6.3  c1.8-1.8,4.6-1.8,6.3,0c0.2,0.2,0.3,0.3,0.4,0.5c1.6-2.4,2.7-5.1,3.3-8c-0.2,0-0.4,0.1-0.7,0.1c-2.5,0-4.5-2-4.5-4.5  c0-2.5,2-4.5,4.5-4.5c0.2,0,0.5,0,0.7,0.1c-0.4-2.1-1.1-4-2.1-5.9"/><polygon fill="none" stroke="#000000" stroke-width="4" stroke-linecap="round" stroke-linejoin="round" stroke-miterlimit="10" points="  85.9,33 85.9,25 73,25 46,37 41,37 41,57 35,57 35,65 46,65 73,52 86,52 86,44 78,44 78,33 "/><line fill="none" stroke="#000000" stroke-width="4" stroke-linecap="round" stroke-linejoin="round" stroke-miterlimit="10" x1="47" y1="65" x2="82" y2="70"/><path fill="none" stroke="#000000" stroke-width="4" stroke-linecap="round" stroke-linejoin="round" stroke-miterlimit="10" d="  M86,52C86,52,86,52,86,52c2.4,0.1,11.3,0.4,13,3c1.8,2.7-12.9,7.7-16.3,8.8C81.2,67.9,80.6,71,85,71c8.3,0,25-7,25-19S93.3,33,85,33  "/><path fill="none" stroke="#000000" stroke-width="4" stroke-linecap="round" stroke-linejoin="round" stroke-miterlimit="10" d="  M40.8,51.1L27.3,37.7c1.5-0.4,2.9-1.2,4-2.3c3.5-3.5,3.5-9.2,0-12.7c-3.5-3.5-8.8-4.2-12.4-0.6l-3.7,3.7L10,31l25,25.5"/><line fill="none" stroke="#000000" stroke-width="4" stroke-linecap="round" stroke-linejoin="round" stroke-miterlimit="10" x1="37" y1="11" x2="28.1" y2="19.9"/><line fill="none" stroke="#000000" stroke-width="4" stroke-linecap="round" stroke-linejoin="round" stroke-miterlimit="10" x1="41" y1="21" x2="34.1" y2="27.9"/><path fill="none" stroke="#000000" stroke-width="4" stroke-linecap="round" stroke-linejoin="round" stroke-miterlimit="10" d="  M19,41H6c0,0-4,0-4,4s10,20,10,20h23"/><path fill="none" stroke="#000000" stroke-width="4" stroke-linecap="round" stroke-linejoin="round" stroke-miterlimit="10" d="  M82.6,71L54,92l-41,7v6l36,21h8v-12.4c5-1.3,9-5.9,9-11.2c0-1.7-0.4-3.3-1-4.7L112,69c5.5-3.9,9-10.3,9-17.5  c0-11.9-9.6-21.5-21.5-21.5c-3.9,0-7.5,1-10.7,2.8 M49,118l-18.5-11.2L49,110V118z"/>
<!-- <text x="0" y="143" fill="#000000" font-size="5px" font-weight="bold" font-family="'Helvetica Neue', Helvetica, Arial-Unicode, Arial, Sans-serif">Created by Juraj Sedlák</text><text x="0" y="148" fill="#000000" font-size="5px" font-weight="bold" font-family="'Helvetica Neue', Helvetica, Arial-Unicode, Arial, Sans-serif">from the Noun Project</text> -->
</svg>