<svg xmlns="http://www.w3.org/2000/svg" xmlns:xlink="http://www.w3.org/1999/xlink" version="1.1" x="0px" y="0px" viewBox="0 8 100 73" style="enable-background:new 0 0 90 90;" xml:space="preserve"><path d="M71.8,37.5c-1.9,0-3.8,0.3-5.5,0.9l-4.9-11.1l2.2-6h3.4c0.9,0,1.6-0.7,1.6-1.6s-0.7-1.6-1.6-1.6h-10c-0.9,0-1.6,0.7-1.6,1.6  s0.7,1.6,1.6,1.6h3.3l-1.7,4.5H31.6l1.1-2.6c0,0,0-0.1,0-0.1c0-0.1,0-0.1,0-0.2c0-0.1,0-0.2,0-0.2c0,0,0,0,0-0.1c0,0,0,0,0,0  c0-0.1,0-0.2,0-0.3c0,0,0,0,0,0c0-0.1-0.1-0.2-0.1-0.3c0-0.1-0.1-0.1-0.1-0.2c0,0,0-0.1-0.1-0.1c0,0-0.1-0.1-0.1-0.1  c0,0-0.1-0.1-0.1-0.1c-0.1-0.1-0.1-0.1-0.2-0.2c0,0,0,0-0.1,0c-0.1,0-0.1-0.1-0.2-0.1c0,0,0,0,0,0c0,0-0.1,0-0.1,0  c-0.1,0-0.1,0-0.2-0.1c-0.1,0-0.1,0-0.2,0c0,0-0.1,0-0.1,0h-10c-0.9,0-1.6,0.7-1.6,1.6c0,0.9,0.7,1.6,1.6,1.6h7.7l-1.1,2.6  c0,0,0,0,0,0l-4.8,11.6c-1.6-0.5-3.3-0.8-5.1-0.8c-9.5,0-17.3,7.8-17.3,17.3c0,9.5,7.8,17.3,17.3,17.3s17.3-7.8,17.3-17.3  c0-6.7-3.8-12.4-9.3-15.3l3-7.3l19,23.6c0,0,0,0,0,0c0,0,0,0.1,0.1,0.1c0,0,0,0,0.1,0.1c0,0,0,0,0.1,0.1c0,0,0.1,0,0.1,0.1  c0,0,0,0,0.1,0c0,0,0.1,0,0.1,0.1c0,0,0,0,0.1,0c0,0,0.1,0,0.1,0c0,0,0,0,0.1,0c0,0,0.1,0,0.1,0c0,0,0,0,0.1,0c0,0,0.1,0,0.1,0  c0,0,0,0,0.1,0c0.1,0,0.1,0,0.2,0c0,0,0,0,0,0h5.4c0.8,8.8,8.2,15.7,17.2,15.7c9.5,0,17.3-7.8,17.3-17.3  C89.2,45.3,81.4,37.5,71.8,37.5z M32.1,54.8c0,7.8-6.4,14.2-14.2,14.2c-7.8,0-14.2-6.4-14.2-14.2c0-7.8,6.4-14.2,14.2-14.2  c1.4,0,2.7,0.2,3.9,0.6l-5.4,13c-0.3,0.8,0.1,1.7,0.8,2c0.2,0.1,0.4,0.1,0.6,0.1c0.6,0,1.2-0.4,1.4-1l5.4-13  C29.1,44.8,32.1,49.5,32.1,54.8z M69.4,53.2H57.8c0.5-4.6,3.2-8.5,7-10.7L69.4,53.2z M48.7,51.7L30.3,28.9h27.2L48.7,51.7z   M51.5,53.2l8.4-21.8l3.6,8.2c-4.9,2.7-8.4,7.7-8.9,13.6H51.5z M71.8,69c-7.3,0-13.3-5.5-14.1-12.6h14.1c0.5,0,1-0.3,1.3-0.7  c0.3-0.4,0.3-1,0.1-1.5l-5.7-12.9c1.3-0.4,2.8-0.6,4.2-0.6C79.7,40.6,86,47,86,54.8C86,62.6,79.7,69,71.8,69z"/>
<!-- <text x="0" y="105" fill="#000000" font-size="5px" font-weight="bold" font-family="'Helvetica Neue', Helvetica, Arial-Unicode, Arial, Sans-serif">Created by Nico Ilk</text><text x="0" y="110" fill="#000000" font-size="5px" font-weight="bold" font-family="'Helvetica Neue', Helvetica, Arial-Unicode, Arial, Sans-serif">from the Noun Project</text> -->
</svg>