<svg xmlns="http://www.w3.org/2000/svg" xmlns:xlink="http://www.w3.org/1999/xlink" version="1.1" x="0px" y="0px" viewBox="0 0 100 125" enable-background="new 0 0 100 100" xml:space="preserve"><path d="M83.72,79.367c-2.646-1.414-3.631-4.703-2.209-7.341c1.414-2.638,4.695-3.631,7.333-2.209  c2.638,1.414,3.631,4.703,2.216,7.341C89.639,79.796,86.35,80.789,83.72,79.367 M39.137,41.107  c-3.504-1.883-4.822-6.244-2.939-9.748c1.883-3.496,6.244-4.814,9.748-2.932c3.496,1.875,4.806,6.237,2.931,9.74  C46.993,41.671,42.632,42.99,39.137,41.107 M25.512,66.465c-3.504-1.883-4.814-6.244-2.932-9.748  c1.875-3.504,6.236-4.814,9.74-2.932c3.496,1.875,4.814,6.237,2.931,9.74C33.377,67.029,29.015,68.34,25.512,66.465 M19.641,46.978  c-3.504-1.883-4.814-6.244-2.931-9.748c1.875-3.496,6.236-4.814,9.74-2.932c3.504,1.883,4.814,6.244,2.939,9.74  C27.506,47.542,23.145,48.853,19.641,46.978 M90.409,66.91L63.16,52.277c0.286-1.144,1.605-1.907,3.186-1.796  c0.048-0.508,0.088-1.025,0.111-1.533c-1.628-0.127-2.916-1.112-2.947-2.359c-0.04-1.247,1.168-2.312,2.781-2.534  c-0.048-0.509-0.119-1.017-0.199-1.525c-1.621,0.207-3.075-0.493-3.368-1.7c-0.302-1.208,0.667-2.502,2.193-3.059  c-0.159-0.484-0.334-0.969-0.508-1.446c-1.541,0.548-3.114,0.159-3.647-0.961c-0.548-1.121,0.127-2.59,1.517-3.456  c-0.262-0.437-0.532-0.874-0.81-1.311c-1.39,0.858-3.011,0.81-3.774-0.175c-0.763-0.977-0.405-2.558,0.77-3.694  c-0.349-0.381-0.699-0.747-1.057-1.104c-1.192,1.128-2.788,1.414-3.734,0.604c-0.945-0.802-0.93-2.415-0.008-3.773  c-0.421-0.294-0.842-0.588-1.279-0.858c-0.922,1.343-2.423,1.955-3.512,1.366c-1.096-0.596-1.414-2.177-0.81-3.686  c-0.469-0.214-0.938-0.405-1.414-0.58c-0.627,1.502-1.962,2.415-3.154,2.066c-1.2-0.342-1.835-1.827-1.557-3.448  c-0.5-0.103-1.001-0.191-1.501-0.27c-0.302,1.613-1.422,2.781-2.661,2.685c-1.239-0.096-2.169-1.406-2.232-3.043  c-0.516,0-1.033,0.016-1.533,0.048c0.04,1.636-0.81,3.003-2.042,3.17c-1.231,0.175-2.415-0.921-2.812-2.502  c-0.5,0.112-1.001,0.231-1.501,0.366c0.389,1.581-0.167,3.106-1.327,3.519c-1.176,0.429-2.558-0.397-3.281-1.867  c-0.461,0.207-0.93,0.437-1.382,0.667c0.699,1.47,0.485,3.075-0.572,3.734c-1.057,0.651-2.59,0.127-3.599-1.16  c-0.413,0.302-0.818,0.62-1.216,0.945c0.993,1.295,1.12,2.908,0.223,3.766c-0.898,0.866-2.51,0.668-3.758-0.373  c-0.342,0.382-0.667,0.771-0.993,1.176c1.247,1.057,1.692,2.606,1.001,3.639c-0.699,1.025-2.312,1.184-3.75,0.413  c-0.127,0.223-0.254,0.445-0.373,0.667c-0.127,0.23-0.238,0.461-0.358,0.691c1.438,0.77,2.193,2.2,1.724,3.344  c-0.469,1.152-2.01,1.636-3.575,1.184c-0.167,0.485-0.302,0.978-0.437,1.478c1.565,0.461,2.614,1.692,2.391,2.916  c-0.215,1.223-1.628,2.018-3.265,1.899C5.064,44.92,5.024,45.429,5,45.937c1.628,0.135,2.908,1.12,2.947,2.367  c0.04,1.239-1.176,2.304-2.789,2.534c0.056,0.508,0.127,1.017,0.207,1.525c1.621-0.214,3.074,0.485,3.368,1.692  c0.294,1.208-0.667,2.502-2.209,3.066c0.167,0.485,0.342,0.969,0.524,1.438c1.541-0.54,3.106-0.151,3.646,0.961  c0.54,1.121-0.135,2.59-1.517,3.456c0.254,0.445,0.524,0.874,0.802,1.311c1.398-0.858,3.019-0.802,3.774,0.175  c0.763,0.985,0.405,2.566-0.77,3.702c0.349,0.373,0.699,0.747,1.064,1.105c1.184-1.128,2.781-1.414,3.726-0.612  c0.945,0.802,0.93,2.423,0.016,3.782c0.413,0.294,0.834,0.58,1.271,0.858c0.93-1.35,2.423-1.954,3.519-1.366  c1.089,0.588,1.414,2.169,0.802,3.686c0.469,0.207,0.945,0.405,1.422,0.58c0.62-1.501,1.954-2.415,3.154-2.065  c1.192,0.341,1.835,1.827,1.549,3.44c0.5,0.103,1.009,0.198,1.509,0.27c0.294-1.605,1.414-2.773,2.653-2.678  c1.239,0.096,2.177,1.406,2.232,3.043c0.516,0,1.025-0.024,1.533-0.048c-0.04-1.636,0.81-3.011,2.05-3.177  c1.223-0.167,2.407,0.93,2.804,2.51c0.5-0.111,1.001-0.23,1.493-0.366c-0.373-1.588,0.167-3.106,1.335-3.527  c1.176-0.421,2.566,0.405,3.281,1.867c0.461-0.207,0.93-0.429,1.382-0.659c-0.707-1.477-0.485-3.082,0.572-3.734  c1.065-0.659,2.59-0.135,3.599,1.152c0.413-0.302,0.818-0.62,1.216-0.937c-0.961-1.247-1.057-2.765-0.262-3.646l27.249,14.633  c4.25,2.28,9.525,0.683,11.805-3.559C96.24,74.473,94.644,69.19,90.409,66.91"/>
<!-- <text x="0" y="115" fill="#000000" font-size="5px" font-weight="bold" font-family="'Helvetica Neue', Helvetica, Arial-Unicode, Arial, Sans-serif">Created by orlangiodo</text><text x="0" y="120" fill="#000000" font-size="5px" font-weight="bold" font-family="'Helvetica Neue', Helvetica, Arial-Unicode, Arial, Sans-serif">from the Noun Project</text> -->
</svg>