<svg xmlns="http://www.w3.org/2000/svg" xmlns:xlink="http://www.w3.org/1999/xlink" version="1.1" x="0px" y="0px" viewBox="0 0 100 125" style="enable-background:new 0 0 100 100;" xml:space="preserve"><g><path d="M53.8,68.6c0.8,0.7,1.7,1,2.6,1c1.1,0,2.2-0.5,3-1.4L72,53.6c1.3-1.5,1.3-3.7,0-5.2L59.4,33.8c-1.4-1.7-4-1.9-5.6-0.4   c-1.7,1.4-1.9,4-0.4,5.6l6.9,8H35c-2.2,0-4,1.8-4,4s1.8,4,4,4h25.3l-6.9,8C51.9,64.7,52.1,67.2,53.8,68.6z"/><path d="M82.9,38.1c0.8,2,3.2,3,5.2,2.2c2-0.8,3-3.2,2.2-5.2C83.8,19.2,68.5,9,51.4,9c-23.2,0-42,18.8-42,42s18.8,42,42,42   c17.1,0,32.4-10.2,38.9-26.1c0.8-2-0.1-4.4-2.2-5.2c-2-0.8-4.4,0.1-5.2,2.2C77.6,76.7,65.3,85,51.4,85c-18.7,0-34-15.3-34-34   s15.3-34,34-34C65.3,17,77.6,25.3,82.9,38.1z"/></g>
<!-- <text x="0" y="115" fill="#000000" font-size="5px" font-weight="bold" font-family="'Helvetica Neue', Helvetica, Arial-Unicode, Arial, Sans-serif">Created by praveen patchu</text><text x="0" y="120" fill="#000000" font-size="5px" font-weight="bold" font-family="'Helvetica Neue', Helvetica, Arial-Unicode, Arial, Sans-serif">from the Noun Project</text> -->
</svg>