<svg xmlns:dc="http://purl.org/dc/elements/1.1/" xmlns:cc="http://creativecommons.org/ns#" xmlns:rdf="http://www.w3.org/1999/02/22-rdf-syntax-ns#" xmlns:svg="http://www.w3.org/2000/svg" xmlns="http://www.w3.org/2000/svg" xmlns:sodipodi="http://sodipodi.sourceforge.net/DTD/sodipodi-0.dtd" xmlns:inkscape="http://www.inkscape.org/namespaces/inkscape" version="1.1" x="0px" y="0px" viewBox="0 0 100 125"><g transform="translate(0,-952.36218)"><path style="font-size:medium;font-style:normal;font-variant:normal;font-weight:normal;font-stretch:normal;text-indent:0;text-align:start;text-decoration:none;line-height:normal;letter-spacing:normal;word-spacing:normal;text-transform:none;direction:ltr;block-progression:tb;writing-mode:lr-tb;text-anchor:start;baseline-shift:baseline;opacity:1;color:#747474;fill:#747474;fill-opacity:1;stroke:none;stroke-width:2;marker:none;visibility:visible;display:inline;overflow:visible;enable-background:accumulate;font-family:Sans;-inkscape-font-specification:Sans" d="M 44.8125 15 A 1.0001 1.0001 0 0 0 44 16 L 44 29.9375 C 42.296141 30.466952 40.686775 31.186986 39.1875 32.09375 L 35.875 28.78125 A 1.0001 1.0001 0 0 0 34.9375 28.5 A 1.0001 1.0001 0 0 0 34.4375 28.78125 L 28.78125 34.4375 A 1.0001 1.0001 0 0 0 28.78125 35.84375 L 32.0625 39.125 C 30.968944 40.92777 30.168872 42.89714 29.65625 45 L 25 45 A 1.0001 1.0001 0 0 0 24 46 L 24 54 A 1.0001 1.0001 0 0 0 25 55 L 29.6875 55 C 30.200781 57.0887 30.975548 59.05185 32.0625 60.84375 L 28.78125 64.125 A 1.0001 1.0001 0 0 0 28.78125 65.53125 L 34.4375 71.1875 A 1.0001 1.0001 0 0 0 35.875 71.1875 L 39.1875 67.875 C 40.68455 68.7808 42.257371 69.6134 43.96875 70.125 A 1.0087508 1.0087508 0 0 0 44 70.125 L 44 77 A 1.0001 1.0001 0 0 0 44.1875 77.5625 L 49.1875 84.5625 A 1.0001 1.0001 0 0 0 50.8125 84.5625 L 55.8125 77.5625 A 1.0001 1.0001 0 0 0 56 77 L 56 70.15625 A 1.0087508 1.0087508 0 0 0 56.03125 70.125 C 57.742629 69.6134 59.31545 68.7808 60.8125 67.875 L 64.125 71.1875 A 1.0001 1.0001 0 0 0 65.5625 71.1875 L 71.21875 65.53125 A 1.0001 1.0001 0 0 0 71.21875 64.125 L 67.9375 60.84375 C 69.024452 59.05185 69.799219 57.0887 70.3125 55 L 75 55 A 1.0001 1.0001 0 0 0 76 54 L 76 46 A 1.0001 1.0001 0 0 0 75 45 L 70.34375 45 C 69.831128 42.89714 69.031056 40.92777 67.9375 39.125 L 71.21875 35.84375 A 1.0001 1.0001 0 0 0 71.21875 34.4375 L 65.5625 28.78125 A 1.0001 1.0001 0 0 0 64.125 28.78125 L 60.8125 32.09375 C 59.313225 31.186986 57.703859 30.466952 56 29.9375 L 56 16 A 1.0001 1.0001 0 0 0 55 15 L 45 15 A 1.0001 1.0001 0 0 0 44.8125 15 z M 46 17 L 54 17 L 54 22 L 46 22 L 46 17 z M 46 24 L 54 24 L 54 29.4375 C 52.708724 29.174931 51.369697 29 50 29 C 48.630303 29 47.291276 29.174931 46 29.4375 L 46 24 z M 35.15625 30.90625 L 38.25 34 A 1.0001 1.0001 0 0 0 39.53125 34.125 C 42.535229 32.13493 46.121992 31 50 31 C 53.878008 31 57.464771 32.13493 60.46875 34.125 A 1.0001 1.0001 0 0 0 61.75 34 L 64.84375 30.90625 L 69.0625 35.125 L 65.96875 38.25 A 1.0001 1.0001 0 0 0 65.84375 39.5 C 67.164 41.4929 68.13209 43.76002 68.625 46.1875 A 1.0001 1.0001 0 0 0 69.59375 47 L 74 47 L 74 53 L 69.59375 53 A 1.0001 1.0001 0 0 0 68.625 53.78125 C 68.13209 56.20875 67.163997 58.47585 65.84375 60.46875 A 1.0001 1.0001 0 0 0 65.96875 61.71875 L 69.0625 64.8125 L 64.84375 69.0625 L 61.75 65.96875 A 1.0001 1.0001 0 0 0 60.46875 65.84375 C 59.09149 66.756156 57.592891 67.470774 56 68 L 56 61.53125 C 60.168086 59.36505 63 55.0125 63 50 C 63 42.83212 57.167856 37 50 37 C 42.832144 37 37 42.83212 37 50 C 37 55.0125 39.831914 59.36505 44 61.53125 L 44 68 C 42.407109 67.470774 40.90851 66.756156 39.53125 65.84375 A 1.0001 1.0001 0 0 0 38.25 65.96875 L 35.15625 69.0625 L 30.9375 64.8125 L 34.03125 61.71875 A 1.0001 1.0001 0 0 0 34.15625 60.46875 C 32.836003 58.47585 31.86791 56.20875 31.375 53.78125 A 1.0001 1.0001 0 0 0 30.40625 53 L 26 53 L 26 47 L 30.40625 47 A 1.0001 1.0001 0 0 0 31.375 46.1875 C 31.86791 43.76002 32.836 41.4929 34.15625 39.5 A 1.0001 1.0001 0 0 0 34.03125 38.25 L 30.9375 35.125 L 35.15625 30.90625 z M 50 39 C 51.416212 39 52.757976 39.296441 54 39.78125 L 54 75 L 46 75 L 46 39.78125 C 47.242024 39.296441 48.583788 39 50 39 z M 44 40.78125 L 44 59.1875 C 40.995409 57.227857 39 53.864884 39 50 C 39 46.129638 40.988583 42.741161 44 40.78125 z M 56 40.78125 C 59.011417 42.741161 61 46.129638 61 50 C 61 53.864884 59.004591 57.227857 56 59.1875 L 56 40.78125 z M 46.25 77 L 53.75 77 L 50 82.28125 L 46.25 77 z " transform="translate(0,952.36218)"/></g>
<!-- <text x="0" y="115" fill="#000000" font-size="5px" font-weight="bold" font-family="'Helvetica Neue', Helvetica, Arial-Unicode, Arial, Sans-serif">Created by amy morgan</text><text x="0" y="120" fill="#000000" font-size="5px" font-weight="bold" font-family="'Helvetica Neue', Helvetica, Arial-Unicode, Arial, Sans-serif">from the Noun Project</text> -->
</svg>