<svg xmlns="http://www.w3.org/2000/svg" xmlns:xlink="http://www.w3.org/1999/xlink" version="1.1" x="0px" y="0px" viewBox="0 0 100 100" enable-background="new 0 0 100 100" xml:space="preserve"><path fill-rule="evenodd" clip-rule="evenodd" d="M-119.521,229.871c-0.031,0.281-0.067,0.611-0.131,1.193  c-0.668-0.392-1.189-0.696-1.725-1.01c-0.134,0.242-0.267,0.48-0.51,0.919c-0.109-0.422-0.274-0.693-0.199-0.851  c0.122-0.255,0.369-0.516,0.625-0.618c0.167-0.066,0.437,0.181,0.672,0.226C-120.424,229.8-120.051,229.815-119.521,229.871z"></path><path fill-rule="evenodd" clip-rule="evenodd" d="M94.596,52.347c-0.641-0.326-1.297-0.62-1.927-0.963  c-1.144-0.623-1.37-2.172-0.897-3.119c0.325-0.654,0.873-1.012,1.511-1.271c0.416-0.169,0.841-0.315,1.262-0.473  c0.221-0.083,0.417-0.177,0.362-0.48c-0.053-0.29,0.066-0.632-0.392-0.743c-0.652-0.159-1.294-0.372-1.931-0.586  c-0.939-0.315-1.484-0.985-1.64-1.964c-0.151-0.96,0.216-1.708,0.979-2.272c0.229-0.169,0.476-0.313,0.718-0.46  c0.282-0.17,0.585-0.311,0.85-0.505c0.126-0.093,0.263-0.279,0.261-0.421c-0.008-0.526-0.154-0.666-0.674-0.76  c-0.131-0.024-0.267-0.03-0.399-0.054c-0.676-0.116-1.381-0.149-2.019-0.374c-1.466-0.514-1.925-2.566-0.862-3.663  c0.298-0.309,0.628-0.585,0.949-0.871c0.201-0.18,0.412-0.348,0.618-0.524c0.177-0.152,0.256-0.323,0.129-0.555  c-0.124-0.229-0.152-0.532-0.528-0.515c-0.388,0.019-0.777,0.005-1.166,0.005c0,0.002,0,0.004,0,0.007  c-0.329,0-0.659,0.01-0.988-0.001c-1.025-0.036-1.699-0.576-2.104-1.498c-0.369-0.846-0.217-1.621,0.339-2.324  c0.344-0.436,0.724-0.842,1.076-1.271c0.149-0.182,0.314-0.357,0.134-0.64c-0.167-0.262-0.286-0.516-0.675-0.434  c-0.583,0.124-1.173,0.222-1.762,0.323c-1.434,0.247-2.646-0.568-2.928-2.002c-0.081-0.412-0.127-0.867,0.311-1.166  c0.037-0.025,0.074-0.111,0.059-0.141c-0.119-0.227,0.048-0.37,0.145-0.53c0.216-0.361,0.441-0.717,0.654-1.08  c0.123-0.21,0.229-0.406,0.004-0.65c-0.217-0.236-0.388-0.42-0.755-0.279c-0.614,0.234-1.238,0.448-1.873,0.619  c-1.092,0.294-1.971-0.069-2.631-0.978c-0.354-0.486-0.507-1.041-0.334-1.623c0.198-0.667,0.465-1.313,0.694-1.971  c0.174-0.496,0.154-0.482-0.23-0.829c-0.198-0.178-0.363-0.156-0.564-0.053c-0.653,0.332-1.29,0.706-1.967,0.98  c-1.36,0.553-2.922-0.333-3.212-1.783c-0.023-0.114-0.025-0.239-0.005-0.354c0.126-0.719,0.256-1.438,0.396-2.154  c0.062-0.318-0.009-0.535-0.319-0.693c-0.225-0.114-0.399-0.165-0.611,0.005c-0.222,0.177-0.46,0.335-0.69,0.501  c-0.352,0.254-0.698,0.516-1.056,0.762c-1.203,0.832-3.191,0.035-3.532-1.372c-0.07-0.288-0.087-0.595-0.083-0.893  c0.007-0.526,0.058-1.052,0.069-1.579c0.003-0.136-0.037-0.316-0.126-0.404c-0.298-0.292-0.663-0.269-0.975,0.029  c-0.13,0.124-0.247,0.261-0.373,0.389c-0.359,0.362-0.7,0.746-1.084,1.08c-1.261,1.096-3.544,0.339-3.799-1.324  c-0.102-0.653-0.183-1.309-0.259-1.966c-0.025-0.226-0.107-0.361-0.346-0.393c-0.239-0.032-0.487-0.205-0.684,0.099  c-0.18,0.277-0.372,0.546-0.567,0.812c-0.276,0.374-0.531,0.769-0.847,1.106c-0.98,1.053-3.165,0.786-3.756-0.677  c-0.146-0.361-0.252-0.739-0.365-1.112c-0.103-0.33-0.19-0.665-0.286-0.997c-0.056-0.199-0.189-0.282-0.393-0.306  c-0.472-0.053-0.552-0.022-0.77,0.424c-0.252,0.514-0.476,1.041-0.739,1.547c-0.302,0.583-0.76,0.999-1.408,1.175  c-1.068,0.289-2.275-0.02-2.878-1.238c-0.267-0.539-0.523-1.083-0.775-1.629c-0.089-0.194-0.207-0.249-0.423-0.225  c-0.55,0.062-0.554,0.047-0.73,0.595c-0.198,0.614-0.355,1.245-0.595,1.84c-0.256,0.634-0.766,1.034-1.424,1.209  C42.699,9,41.801,8.746,41.133,7.84c-0.338-0.458-0.661-0.931-0.962-1.414c-0.178-0.286-0.398-0.3-0.683-0.237  c-0.281,0.062-0.436,0.189-0.465,0.504c-0.055,0.583-0.137,1.164-0.235,1.741c-0.161,0.945-0.694,1.571-1.614,1.864  c-0.947,0.301-1.772,0.12-2.471-0.593c-0.41-0.418-0.818-0.838-1.204-1.277C33.237,8.13,33,8.31,32.734,8.393  c-0.266,0.083-0.275,0.266-0.269,0.492c0.019,0.602,0.05,1.206,0.028,1.807c-0.051,1.392-1.105,2.376-2.493,2.368  c-0.72-0.004-1.276-0.38-1.819-0.789c-0.312-0.234-0.627-0.464-0.92-0.721c-0.301-0.266-0.533-0.099-0.804,0.053  c-0.283,0.159-0.247,0.37-0.184,0.617c0.06,0.232,0.122,0.466,0.153,0.703c0.075,0.563,0.249,1.144,0.176,1.689  c-0.206,1.54-1.981,2.517-3.386,1.83c-0.579-0.282-1.146-0.586-1.723-0.874c-0.099-0.049-0.23-0.107-0.324-0.081  c-0.433,0.121-0.631,0.529-0.471,0.966c0.186,0.507,0.41,1.001,0.582,1.514c0.3,0.892,0.119,1.69-0.535,2.371  c-0.66,0.686-1.449,0.941-2.37,0.679c-0.589-0.168-1.167-0.376-1.752-0.556c-0.444-0.136-0.474-0.101-0.82,0.314  c-0.216,0.258-0.06,0.447,0.056,0.65c0.297,0.522,0.645,1.021,0.895,1.564c0.728,1.579-0.625,3.476-2.344,3.299  c-0.698-0.071-1.392-0.184-2.083-0.309c-0.41-0.074-0.493,0.238-0.661,0.472c-0.167,0.233-0.019,0.399,0.113,0.56  c0.333,0.407,0.689,0.794,1.01,1.21c0.576,0.748,0.747,1.569,0.336,2.454c-0.429,0.925-1.136,1.457-2.176,1.469  c-0.644,0.008-1.288,0.01-1.931-0.002c-0.269-0.005-0.417,0.11-0.496,0.358c-0.082,0.257-0.214,0.506,0.076,0.731  c0.294,0.23,0.571,0.484,0.86,0.722c0.614,0.506,1.163,1.054,1.192,1.924c0.045,1.351-0.781,2.353-2.135,2.583  c-0.604,0.103-1.21,0.196-1.819,0.264c-0.354,0.039-0.364,0.312-0.431,0.546c-0.064,0.224-0.084,0.436,0.179,0.582  c0.393,0.217,0.768,0.465,1.153,0.695c0.836,0.497,1.421,1.144,1.363,2.205c-0.061,1.105-0.572,1.885-1.617,2.266  c-0.59,0.214-1.196,0.384-1.792,0.582c-0.425,0.141-0.427,0.178-0.473,0.646c-0.031,0.323,0.074,0.51,0.38,0.613  c0.354,0.119,0.701,0.26,1.048,0.397c0.773,0.304,1.48,0.699,1.723,1.576c0.333,1.202-0.08,2.351-1.124,2.91  c-0.607,0.324-1.224,0.632-1.84,0.938c-0.248,0.122-0.299,0.308-0.248,0.557c0.052,0.251-0.025,0.56,0.361,0.628  c0.441,0.077,0.876,0.189,1.316,0.277c0.99,0.197,1.782,0.646,2.053,1.704c0.289,1.129-0.059,2.047-0.99,2.734  c-0.435,0.32-0.89,0.611-1.323,0.935c-0.473,0.354-0.455,0.36-0.316,0.934c0.058,0.239,0.156,0.373,0.412,0.377  c0.446,0.009,0.894,0.021,1.339,0.043c0.801,0.04,1.548,0.222,2.056,0.918c0.73,1.002,0.627,2.301-0.261,3.214  c-0.46,0.474-0.943,0.925-1.424,1.376c-0.298,0.279-0.045,0.521,0.027,0.777c0.07,0.246,0.229,0.325,0.475,0.298  c0.491-0.056,0.983-0.088,1.473-0.146c0.946-0.11,1.78,0.113,2.328,0.933c0.592,0.886,0.661,1.83,0.033,2.747  c-0.348,0.508-0.734,0.988-1.098,1.485c-0.365,0.5-0.367,0.639,0.027,1.099c0.079,0.092,0.256,0.167,0.371,0.148  c0.337-0.057,0.663-0.179,0.999-0.25c0.465-0.097,0.933-0.236,1.401-0.242c1.475-0.02,2.576,1.38,2.219,2.819  c-0.11,0.444-0.346,0.86-0.55,1.276c-0.198,0.404-0.427,0.794-0.648,1.186c-0.162,0.288,0.046,0.446,0.2,0.626  c0.143,0.167,0.253,0.378,0.546,0.252c0.504-0.219,1.048-0.36,1.523-0.63c1.646-0.931,3.496,0.471,3.409,2.089  c-0.025,0.47-0.19,0.938-0.327,1.395c-0.137,0.461-0.314,0.908-0.482,1.359c-0.067,0.179-0.021,0.304,0.112,0.438  c0.455,0.46,0.516,0.478,1.064,0.151c0.193-0.114,0.368-0.258,0.558-0.378c0.315-0.2,0.621-0.426,0.958-0.581  c1.208-0.556,2.56-0.048,3.15,1.15c0.291,0.588,0.245,1.199,0.14,1.812c-0.097,0.562-0.222,1.12-0.325,1.682  c-0.018,0.097-0.022,0.223,0.024,0.301c0.238,0.393,0.782,0.47,1.149,0.177c0.059-0.046,0.116-0.097,0.172-0.145  c0.439-0.382,0.85-0.803,1.321-1.137c1.397-0.989,3.494-0.015,3.635,1.697c0.059,0.717-0.001,1.443-0.004,2.164  c-0.003,0.601,0.001,0.593,0.554,0.804c0.222,0.084,0.394,0.081,0.554-0.121c0.251-0.317,0.512-0.629,0.783-0.931  c0.289-0.321,0.573-0.652,0.898-0.933c0.377-0.325,0.861-0.469,1.342-0.413c1.194,0.138,2.08,0.644,2.333,2.154  c0.097,0.578,0.129,1.166,0.189,1.75c0.047,0.462,0.501,0.793,0.945,0.673c0.078-0.021,0.161-0.088,0.203-0.158  c0.211-0.344,0.417-0.693,0.613-1.047c0.309-0.557,0.646-1.093,1.195-1.439c1.046-0.658,3.021-0.346,3.528,1.458  c0.175,0.622,0.354,1.243,0.511,1.87c0.056,0.224,0.162,0.317,0.388,0.355c0.592,0.099,0.642,0.09,0.886-0.472  c0.246-0.565,0.442-1.153,0.72-1.702c0.422-0.835,1.126-1.272,2.066-1.272c0.958,0,1.719,0.395,2.169,1.265  c0.298,0.572,0.536,1.175,0.798,1.766c0.204,0.463,0.271,0.485,0.746,0.435c0.303-0.032,0.444-0.174,0.511-0.462  c0.147-0.645,0.277-1.297,0.484-1.923c0.534-1.606,2.262-1.88,3.211-1.473c0.518,0.223,0.887,0.611,1.192,1.063  c0.328,0.485,0.624,0.992,0.943,1.483c0.062,0.095,0.154,0.207,0.253,0.233c0.386,0.099,0.806-0.213,0.855-0.613  c0.013-0.089,0.009-0.181,0.02-0.271c0.082-0.67,0.089-1.36,0.265-2.006c0.459-1.687,2.578-2.283,3.861-1.099  c0.525,0.485,0.967,1.062,1.456,1.588c0.097,0.104,0.23,0.231,0.352,0.237c0.428,0.021,0.729-0.309,0.714-0.757  c-0.021-0.662-0.103-1.324-0.083-1.982c0.03-1.025,0.534-1.759,1.482-2.176c0.897-0.396,1.723-0.269,2.482,0.329  c0.483,0.379,0.962,0.767,1.421,1.174c0.235,0.207,0.424,0.205,0.677,0.037c0.256-0.169,0.442-0.309,0.341-0.678  c-0.167-0.606-0.277-1.229-0.417-1.845c-0.297-1.309,0.596-2.553,1.853-2.879c0.712-0.186,1.362,0.02,1.972,0.382  c0.477,0.285,0.941,0.589,1.42,0.867c0.101,0.058,0.269,0.092,0.364,0.048c0.51-0.236,0.612-0.507,0.412-1.044  c-0.23-0.619-0.519-1.22-0.702-1.854c-0.386-1.325,0.479-2.694,1.822-2.986c0.639-0.139,1.214,0.055,1.786,0.284  c0.431,0.172,0.851,0.372,1.282,0.543c0.116,0.046,0.278,0.081,0.383,0.035c0.391-0.169,0.538-0.661,0.325-1.049  c-0.312-0.564-0.657-1.112-0.955-1.686c-0.879-1.697,0.523-3.66,2.325-3.459c0.399,0.044,0.792,0.148,1.186,0.232  c0.336,0.071,0.667,0.166,1.005,0.228c0.104,0.02,0.253,0.003,0.33-0.06c0.355-0.291,0.397-0.682,0.123-1.045  c-0.197-0.264-0.416-0.513-0.618-0.773c-0.22-0.286-0.452-0.564-0.644-0.869c-0.785-1.25-0.328-2.847,0.998-3.484  c0.608-0.294,1.256-0.208,1.897-0.157c0.402,0.031,0.805,0.061,1.209,0.075c0.091,0.004,0.217-0.036,0.271-0.103  c0.312-0.368,0.284-0.747-0.074-1.097c-0.204-0.198-0.433-0.371-0.639-0.569c-0.303-0.289-0.621-0.569-0.888-0.891  c-0.588-0.707-0.702-1.514-0.385-2.373c0.338-0.913,1.034-1.38,1.967-1.49c0.563-0.065,1.135-0.059,1.701-0.108  c0.165-0.014,0.388-0.061,0.473-0.175c0.294-0.396,0.197-0.808-0.221-1.102c-0.282-0.199-0.584-0.367-0.862-0.57  c-0.338-0.247-0.687-0.49-0.983-0.781c-0.713-0.7-0.853-1.679-0.464-2.628c0.349-0.85,1.056-1.234,1.896-1.425  c0.466-0.105,0.939-0.185,1.405-0.297c0.133-0.033,0.299-0.108,0.364-0.217C95.116,53.002,94.966,52.534,94.596,52.347z   M54.586,15.98c0.533-0.827,1.252-1.319,2.548-1.227c0.379,0.095,1.026,0.232,1.66,0.423c1.063,0.321,2.136,0.626,3.17,1.027  c2.645,1.025,5.157,2.311,7.486,3.95c1.803,1.268,3.499,2.656,5.03,4.245c0.14,0.145,0.271,0.295,0.406,0.444  c0.247,0.227,0.473,0.47,0.669,0.741c0.139,0.157,0.277,0.314,0.416,0.469c0.375,0.415,0.531,0.948,0.526,1.459  c-0.004,0.38-0.251,0.778-0.452,1.132c-0.296,0.521-0.756,0.846-1.354,0.967c-1.437,0.291-2.87,0.598-4.308,0.885  c-1.375,0.274-2.607-0.053-3.663-0.978c-1.757-1.539-3.676-2.835-5.763-3.87c-0.375-0.187-0.756-0.362-1.141-0.531  c-0.332-0.136-0.667-0.264-1.008-0.369c-0.521-0.16-0.978-0.389-1.374-0.683c-0.838-0.529-1.424-1.295-1.769-2.292  c-0.375-1.084-0.701-2.188-1.055-3.279c-0.1-0.309-0.251-0.602-0.331-0.915C54.135,17.007,54.271,16.47,54.586,15.98z   M69.533,58.399c1.305,0,2.364,1.065,2.364,2.38s-1.06,2.38-2.364,2.38c-0.267,0-0.521-0.046-0.761-0.128  c-0.317-0.102-0.603-0.277-0.843-0.505c-0.468-0.435-0.763-1.056-0.763-1.747C67.167,59.465,68.226,58.399,69.533,58.399z   M67.323,39.204c-0.131-0.274-0.203-0.574-0.195-0.883c0.02-0.677,0.266-1.211,0.671-1.577c0.432-0.47,1.048-0.765,1.733-0.765  c1.306,0,2.364,1.065,2.364,2.38s-1.059,2.379-2.364,2.379C68.522,40.738,67.662,40.101,67.323,39.204z M50.091,24.929  c0.338,0,0.658,0.073,0.95,0.202c0.14,0.037,0.275,0.101,0.401,0.214c0.02,0.018,0.037,0.037,0.057,0.056  c0.579,0.434,0.956,1.126,0.956,1.908c0,1.315-1.059,2.38-2.364,2.38c-1.308,0-2.366-1.065-2.366-2.38  C47.725,25.995,48.783,24.929,50.091,24.929z M22.897,26.782c0.267-0.313,0.699-0.861,1.175-1.369  c0.799-0.853,1.587-1.722,2.448-2.509c2.198-2.014,4.577-3.783,7.2-5.211c2.029-1.105,4.12-2.055,6.32-2.753  c0.741-0.234,1.496-0.419,2.244-0.63c0.562-0.159,1.133-0.056,1.607,0.189c0.353,0.183,0.607,0.603,0.842,0.958  c0.346,0.524,0.433,1.111,0.265,1.733c-0.404,1.493-0.791,2.991-1.199,4.482c-0.297,1.086-0.882,1.929-1.743,2.518  c-0.521,0.426-1.139,0.749-1.831,0.999c-0.411,0.148-0.814,0.312-1.214,0.482c-1.458,0.75-2.848,1.62-4.162,2.62  c-0.812,0.618-1.59,1.286-2.338,1.98c-1.077,0.999-2.332,1.381-3.759,1.194c-1.188-0.155-2.369-0.366-3.553-0.545  c-0.335-0.05-0.68-0.045-1.008-0.117c-0.604-0.131-1.04-0.511-1.348-1.039C22.323,28.872,22.203,27.961,22.897,26.782z   M30.533,40.738c-1.306,0-2.365-1.065-2.365-2.379s1.059-2.38,2.365-2.38c1.004,0,1.861,0.631,2.204,1.521  c0.016,0.039,0.029,0.078,0.042,0.117c0.006,0.02,0.013,0.04,0.019,0.06c0.009,0.032,0.017,0.063,0.024,0.095  c0.048,0.188,0.076,0.384,0.076,0.587C32.897,39.673,31.838,40.738,30.533,40.738z M32.578,60.044  c0.082,0.241,0.127,0.498,0.127,0.767c0,1.314-1.059,2.38-2.365,2.38c-1.306,0-2.365-1.065-2.365-2.38s1.059-2.379,2.365-2.379  c0.439,0,0.849,0.122,1.201,0.332C32.075,59.057,32.424,59.488,32.578,60.044z M20.538,61.291c-0.218,0.241-0.398,0.519-0.629,0.744  c-0.425,0.413-0.958,0.561-1.538,0.525c-0.982-0.057-1.765-0.445-2.328-1.629c-0.105-0.38-0.308-1.017-0.456-1.668  c-0.249-1.093-0.516-2.186-0.681-3.294c-0.421-2.83-0.553-5.675-0.286-8.533c0.206-2.211,0.569-4.39,1.188-6.522  c0.208-0.717,0.464-1.42,0.695-2.13c0.174-0.534,0.559-0.937,1.005-1.185c0.332-0.186,0.799-0.166,1.206-0.165  c0.598,0.002,1.108,0.245,1.51,0.71c0.965,1.118,1.942,2.225,2.904,3.344c0.919,1.072,1.246,2.317,0.968,3.702  c-0.459,2.286-0.632,4.593-0.502,6.917c0.071,0.757,0.178,1.512,0.281,2.265c0.06,0.435,0.112,0.866,0.096,1.294  c0.047,1.154-0.331,2.175-1.11,3.071C22.104,59.606,21.31,60.438,20.538,61.291z M45.336,83.201  c-0.514,0.841-1.222,1.351-2.521,1.288c-0.381-0.086-1.034-0.207-1.672-0.384c-1.072-0.295-2.153-0.575-3.197-0.952  c-2.671-0.963-5.217-2.188-7.587-3.773c-1.833-1.227-3.565-2.575-5.135-4.129c-0.528-0.522-1.021-1.081-1.532-1.62  c-0.384-0.406-0.554-0.936-0.561-1.447c-0.005-0.381,0.233-0.785,0.426-1.144c0.284-0.528,0.737-0.865,1.333-1.001  c1.431-0.325,2.859-0.667,4.291-0.989c1.37-0.308,2.611-0.009,3.689,0.892c1.795,1.499,3.747,2.749,5.859,3.735  c0.881,0.411,1.789,0.773,2.706,1.098c1.319,0.466,2.2,1.359,2.683,2.653c0.401,1.077,0.753,2.172,1.133,3.257  c0.108,0.308,0.266,0.598,0.353,0.908C45.763,82.163,45.64,82.704,45.336,83.201z M50,74.592c-0.383,0-0.745-0.094-1.065-0.257  c-0.855-0.347-1.368-1.181-1.342-2.11c0.029-1.09,0.7-2.122,1.852-2.323c0.179-0.043,0.364-0.069,0.556-0.069  c1.307,0,2.366,1.066,2.366,2.38C52.365,73.527,51.307,74.592,50,74.592z M49.633,66.938c-9.438-0.119-17.201-7.83-17.001-17.624  c0.197-9.679,8.115-17.156,17.593-17.052c9.493,0.104,17.064,7.825,17.054,17.254C67.234,59.355,59.283,67.057,49.633,66.938z   M76.513,73.3c-0.261,0.288-0.688,0.795-1.153,1.262c-0.783,0.784-1.556,1.584-2.394,2.305c-2.143,1.842-4.449,3.446-6.976,4.721  c-1.955,0.986-3.966,1.823-6.071,2.419c-0.708,0.201-1.43,0.353-2.144,0.53c-0.539,0.133-1.076,0.02-1.518-0.227  c-0.328-0.184-0.558-0.589-0.77-0.935c-0.313-0.506-0.378-1.065-0.2-1.649c0.002-0.007,0.005-0.015,0.007-0.022  c0.018-0.085,0.039-0.17,0.067-0.255c0.07-0.221,0.139-0.443,0.209-0.664c0.328-1.09,0.65-2.182,0.985-3.27  c0.156-0.508,0.378-0.956,0.664-1.345c0.19-0.277,0.416-0.53,0.688-0.748c0.457-0.366,1.02-0.628,1.571-0.844  c1.879-0.731,3.665-1.638,5.31-2.806c0.95-0.675,1.847-1.428,2.771-2.142c0.104-0.081,0.214-0.154,0.325-0.224  c0.957-0.684,2.03-0.914,3.219-0.72c1.12,0.184,2.232,0.419,3.351,0.623c0.314,0.059,0.641,0.064,0.951,0.142  c0.567,0.143,0.97,0.517,1.246,1.025C77.12,71.337,77.206,72.204,76.513,73.3z M85.364,52.106c-0.245,2.169-0.636,4.305-1.258,6.393  c-0.02,0.075-0.038,0.151-0.059,0.227c-0.106,0.393-0.229,0.79-0.394,1.162c-0.142,0.398-0.288,0.796-0.426,1.195  c-0.192,0.553-0.601,0.964-1.07,1.215c-0.35,0.186-0.836,0.155-1.26,0.146c-0.622-0.015-1.149-0.278-1.56-0.771  c-0.981-1.186-1.979-2.356-2.957-3.543c-0.938-1.136-1.252-2.439-0.936-3.876c0.529-2.395,0.756-4.815,0.661-7.262  c-0.04-1.02-0.139-2.042-0.275-3.054c-0.198-1.456,0.208-2.706,1.173-3.773c0.805-0.889,1.649-1.74,2.47-2.612  c0.233-0.247,0.426-0.533,0.672-0.763c0.45-0.421,1.009-0.564,1.612-0.516c1.022,0.08,1.83,0.5,2.393,1.745  c0.102,0.397,0.3,1.066,0.44,1.747c0.238,1.144,0.495,2.288,0.645,3.445C85.619,46.168,85.699,49.134,85.364,52.106z"></path></svg>